<svg width="219" height="19" viewBox="0 0 219 19" fill="none" xmlns="http://www.w3.org/2000/svg">
<path d="M0.621582 18.0801V16.1121L6.18958 0.872054H10.6296L16.2456 16.1841V18.0801H0.621582ZM4.79758 15.0321H12.0456L9.47758 6.96805C9.39758 6.69605 9.28558 6.35205 9.14158 5.93605C9.01358 5.52005 8.87758 5.09605 8.73358 4.66405C8.60558 4.23205 8.50158 3.85605 8.42158 3.53605C8.34158 3.85605 8.22958 4.25605 8.08558 4.73605C7.94158 5.20005 7.80558 5.64805 7.67758 6.08005C7.54958 6.49605 7.45358 6.79205 7.38958 6.96805L4.79758 15.0321Z" fill="#101219"/>
<path d="M33.7264 9.48805C33.7264 10.8161 33.5584 12.0241 33.2224 13.1121C32.9024 14.1841 32.4064 15.1121 31.7344 15.8961C31.0784 16.6801 30.2304 17.2801 29.1904 17.6961C28.1664 18.1121 26.9584 18.3201 25.5664 18.3201C24.1744 18.3201 22.9584 18.1121 21.9184 17.6961C20.8944 17.2641 20.0464 16.6641 19.3744 15.8961C18.7184 15.1121 18.2224 14.1761 17.8864 13.0881C17.5664 12.0001 17.4064 10.7921 17.4064 9.46405C17.4064 7.68805 17.6944 6.14405 18.2704 4.83205C18.8624 3.52005 19.7584 2.50405 20.9584 1.78405C22.1744 1.04805 23.7184 0.680054 25.5904 0.680054C27.4464 0.680054 28.9744 1.04805 30.1744 1.78405C31.3744 2.50405 32.2624 3.52805 32.8384 4.85605C33.4304 6.16805 33.7264 7.71205 33.7264 9.48805ZM21.2224 9.48805C21.2224 10.6881 21.3744 11.7201 21.6784 12.5841C21.9824 13.4481 22.4544 14.1121 23.0944 14.5761C23.7344 15.0401 24.5584 15.2721 25.5664 15.2721C26.6064 15.2721 27.4384 15.0401 28.0624 14.5761C28.7024 14.1121 29.1664 13.4481 29.4544 12.5841C29.7584 11.7201 29.9104 10.6881 29.9104 9.48805C29.9104 7.68005 29.5744 6.26405 28.9024 5.24005C28.2304 4.21605 27.1264 3.70405 25.5904 3.70405C24.5664 3.70405 23.7344 3.93605 23.0944 4.40005C22.4544 4.86405 21.9824 5.52805 21.6784 6.39205C21.3744 7.25605 21.2224 8.28805 21.2224 9.48805Z" fill="#101219"/>
<path d="M51.052 18.0801H46.924L42.436 10.8561L40.9 11.9601V18.0801H37.276V0.944053H40.9V8.79205C41.14 8.45605 41.38 8.12005 41.62 7.78405C41.86 7.44805 42.1 7.11205 42.34 6.77605L46.972 0.944053H51.004L45.028 8.52805L51.052 18.0801Z" fill="#101219"/>
<path d="M59.6215 18.0801H51.8215V16.0161L53.9095 15.0561V3.96805L51.8215 3.00805V0.944053H59.6215V3.00805L57.5335 3.96805V15.0561L59.6215 16.0161V18.0801Z" fill="#101219"/>
<path d="M69.7896 18.0801L65.6616 4.64005H65.5656C65.5816 4.96005 65.6056 5.44005 65.6376 6.08005C65.6696 6.72005 65.7016 7.40805 65.7336 8.14405C65.7656 8.86405 65.7816 9.52005 65.7816 10.1121V18.0801H62.5416V0.944053H67.4856L71.5416 14.0481H71.6136L75.9096 0.944053H80.8536V18.0801H77.4696V9.96805C77.4696 9.42405 77.4776 8.80005 77.4936 8.09605C77.5256 7.39205 77.5496 6.72805 77.5656 6.10405C77.5976 5.46405 77.6216 4.98405 77.6376 4.66405H77.5416L73.1256 18.0801H69.7896Z" fill="#101219"/>
<path d="M98.3102 18.0801L97.0622 14.0001H90.8222L89.5742 18.0801H85.6622L91.7102 0.872054H96.1502L102.222 18.0801H98.3102ZM94.9502 6.96805C94.8702 6.69605 94.7662 6.35205 94.6382 5.93605C94.5102 5.52005 94.3822 5.09605 94.2542 4.66405C94.1262 4.23205 94.0222 3.85605 93.9422 3.53605C93.8622 3.85605 93.7502 4.25605 93.6062 4.73605C93.4782 5.20005 93.3502 5.64805 93.2222 6.08005C93.1102 6.49605 93.0222 6.79205 92.9582 6.96805L91.7342 10.9521H96.1982L94.9502 6.96805ZM83.2622 5.02405V4.71205L84.3902 0.944053H88.3982V1.18405L85.6622 5.02405H83.2622Z" fill="#101219"/>
<path d="M102.794 18.0801V15.2241L108.074 9.10405L103.01 3.63205V0.944053H115.322V3.92005H109.682C109.362 3.92005 109.002 3.91205 108.602 3.89605C108.218 3.88005 107.802 3.84805 107.354 3.80005L111.65 8.55205V9.46405L106.634 15.2241C107.194 15.1761 107.706 15.1441 108.17 15.1281C108.65 15.0961 109.162 15.0801 109.706 15.0801H115.538V18.0801H102.794Z" fill="#101219"/>
<path d="M124.876 18.0801H121.252V3.96805H116.596V0.944053H129.532V3.96805H124.876V18.0801Z" fill="#101219"/>
<path d="M142.038 18.0801H132.174V0.944053H142.038V3.92005H135.798V7.68805H141.606V10.6641H135.798V15.0801H142.038V18.0801Z" fill="#101219"/>
<path d="M149.477 18.0801V15.0561H161.669V18.0801H149.477ZM150.917 10.6641V7.64005H160.229V10.6641H150.917ZM149.957 3.96805V0.944053H161.189V3.96805H149.957Z" fill="#101219"/>
<path d="M175.733 18.0801L174.485 14.0001H168.245L166.997 18.0801H163.085L169.133 0.872054H173.573L179.645 18.0801H175.733ZM172.373 6.96805C172.293 6.69605 172.189 6.35205 172.061 5.93605C171.933 5.52005 171.805 5.09605 171.677 4.66405C171.549 4.23205 171.445 3.85605 171.365 3.53605C171.285 3.85605 171.173 4.25605 171.029 4.73605C170.901 5.20005 170.773 5.64805 170.645 6.08005C170.533 6.49605 170.445 6.79205 170.381 6.96805L169.157 10.9521H173.621L172.373 6.96805Z" fill="#101219"/>
<path d="M197.007 18.0801H192.399L184.935 5.12005H184.839C184.855 5.52005 184.871 5.92805 184.887 6.34405C184.903 6.74405 184.919 7.15205 184.935 7.56805C184.967 7.96805 184.991 8.37605 185.007 8.79205C185.023 9.19205 185.039 9.60005 185.055 10.0161V18.0801H181.815V0.944053H186.399L193.839 13.7841H193.911C193.895 13.3841 193.879 12.9921 193.863 12.6081C193.847 12.2081 193.831 11.8161 193.815 11.4321C193.815 11.0321 193.807 10.6401 193.791 10.2561C193.775 9.85605 193.759 9.45605 193.743 9.05605V0.944053H197.007V18.0801Z" fill="#101219"/>
<path d="M214.466 18.0801L213.218 14.0001H206.978L205.73 18.0801H201.818L207.866 0.872054H212.306L218.378 18.0801H214.466ZM211.106 6.96805C211.026 6.69605 210.922 6.35205 210.794 5.93605C210.666 5.52005 210.538 5.09605 210.41 4.66405C210.282 4.23205 210.178 3.85605 210.098 3.53605C210.018 3.85605 209.906 4.25605 209.762 4.73605C209.634 5.20005 209.506 5.64805 209.378 6.08005C209.266 6.49605 209.178 6.79205 209.114 6.96805L207.89 10.9521H212.354L211.106 6.96805ZM199.418 5.02405V4.71205L200.546 0.944053H204.554V1.18405L201.818 5.02405H199.418Z" fill="#101219"/>
</svg>
