<svg viewBox="0 0 277 87" fill="none" xmlns="http://www.w3.org/2000/svg">
<path d="M54.8647 32H47.9847L40.5047 19.96L37.9447 21.8V32H31.9047V3.43996H37.9447V16.52C38.3447 15.96 38.7447 15.4 39.1447 14.84C39.5447 14.28 39.9447 13.72 40.3447 13.16L48.0647 3.43996H54.7847L44.8247 16.08L54.8647 32Z" fill="white"/>
<path d="M64.8272 32.4C63.1206 32.4 61.6539 31.9466 60.4272 31.04C59.2006 30.1066 58.2672 28.8 57.6272 27.12C56.9872 25.4133 56.6672 23.4266 56.6672 21.16C56.6672 17.4266 57.4272 14.6 58.9472 12.68C60.4672 10.7333 62.4939 9.75996 65.0272 9.75996C66.0672 9.75996 66.9739 9.90663 67.7472 10.2C68.5472 10.4666 69.2406 10.84 69.8272 11.32C70.4139 11.8 70.9206 12.3466 71.3472 12.96H71.5072L72.0272 10.16H77.0672V25.08C77.0672 25.9866 77.2272 26.6 77.5472 26.92C77.8939 27.24 78.2806 27.4 78.7072 27.4C78.8939 27.4 79.1072 27.3733 79.3472 27.32C79.5872 27.2666 79.7606 27.2266 79.8672 27.2V31.88C79.7339 31.96 79.5072 32.04 79.1872 32.12C78.8672 32.2 78.5206 32.2666 78.1472 32.32C77.8006 32.3733 77.4806 32.4 77.1872 32.4C75.8539 32.4 74.7739 32.16 73.9472 31.68C73.1206 31.2 72.4806 30.3466 72.0272 29.12H71.6272C71.2272 29.7066 70.7072 30.2533 70.0672 30.76C69.4272 31.2666 68.6672 31.6666 67.7872 31.96C66.9072 32.2533 65.9206 32.4 64.8272 32.4ZM67.0272 27.72C68.1206 27.72 68.9872 27.4933 69.6272 27.04C70.2939 26.5866 70.7739 25.8933 71.0672 24.96C71.3606 24 71.5072 22.8 71.5072 21.36V21.12C71.5072 18.9866 71.1739 17.3733 70.5072 16.28C69.8672 15.16 68.6806 14.6 66.9472 14.6C65.5339 14.6 64.4806 15.16 63.7872 16.28C63.0939 17.4 62.7472 19.04 62.7472 21.2C62.7472 23.3333 63.0939 24.96 63.7872 26.08C64.4806 27.1733 65.5606 27.72 67.0272 27.72Z" fill="white"/>
<path d="M95.1163 32.04L94.6763 30.68C93.5163 32.8 90.1163 33.12 88.9563 30.6V39.48H83.3163V11.36H88.9963V23.92C88.9963 27.96 94.3163 27.6 94.3163 24V11.36H99.9963L100.076 32.08L95.1163 32.04Z" fill="white"/>
<path d="M113.012 32.4C111.145 32.4 109.639 32.08 108.492 31.44C107.372 30.7733 106.559 29.8933 106.052 28.8C105.545 27.7066 105.292 26.4933 105.292 25.16V10.16H111.252V24.28C111.252 25.5866 111.532 26.4666 112.092 26.92C112.652 27.3733 113.332 27.6 114.132 27.6C114.665 27.6 115.145 27.5733 115.572 27.52C115.999 27.44 116.452 27.3466 116.932 27.24V31.92C116.452 32.0533 115.852 32.16 115.132 32.24C114.412 32.3466 113.705 32.4 113.012 32.4ZM106.692 7.75996V7.23996L108.572 0.959961H115.252V1.35996L110.692 7.75996H106.692Z" fill="white"/>
<path d="M127.405 32.4C125.699 32.4 124.232 31.9466 123.005 31.04C121.779 30.1066 120.845 28.8 120.205 27.12C119.565 25.4133 119.245 23.4266 119.245 21.16C119.245 17.4266 120.005 14.6 121.525 12.68C123.045 10.7333 125.072 9.75996 127.605 9.75996C128.645 9.75996 129.552 9.90663 130.325 10.2C131.125 10.4666 131.819 10.84 132.405 11.32C132.992 11.8 133.499 12.3466 133.925 12.96H134.085L134.605 10.16H139.645V25.08C139.645 25.9866 139.805 26.6 140.125 26.92C140.472 27.24 140.859 27.4 141.285 27.4C141.472 27.4 141.685 27.3733 141.925 27.32C142.165 27.2666 142.339 27.2266 142.445 27.2V31.88C142.312 31.96 142.085 32.04 141.765 32.12C141.445 32.2 141.099 32.2666 140.725 32.32C140.379 32.3733 140.059 32.4 139.765 32.4C138.432 32.4 137.352 32.16 136.525 31.68C135.699 31.2 135.059 30.3466 134.605 29.12H134.205C133.805 29.7066 133.285 30.2533 132.645 30.76C132.005 31.2666 131.245 31.6666 130.365 31.96C129.485 32.2533 128.499 32.4 127.405 32.4ZM129.605 27.72C130.699 27.72 131.565 27.4933 132.205 27.04C132.872 26.5866 133.352 25.8933 133.645 24.96C133.939 24 134.085 22.8 134.085 21.36V21.12C134.085 18.9866 133.752 17.3733 133.085 16.28C132.445 15.16 131.259 14.6 129.525 14.6C128.112 14.6 127.059 15.16 126.365 16.28C125.672 17.4 125.325 19.04 125.325 21.2C125.325 23.3333 125.672 24.96 126.365 26.08C127.059 27.1733 128.139 27.72 129.605 27.72Z" fill="white"/>
<path d="M165.03 32.4C163.67 32.4 162.443 32.1866 161.35 31.76C160.283 31.3333 159.43 30.6 158.79 29.56C158.15 28.4933 157.83 27.0266 157.83 25.16V14.64H152.35V10.16H171.55V14.64H163.79V25.16C163.79 25.72 163.896 26.1866 164.11 26.56C164.323 26.9333 164.63 27.2133 165.03 27.4C165.43 27.56 165.883 27.64 166.39 27.64C167.056 27.64 167.696 27.5733 168.31 27.44C168.923 27.3066 169.536 27.1466 170.15 26.96V31.4C169.563 31.6666 168.816 31.8933 167.91 32.08C167.03 32.2933 166.07 32.4 165.03 32.4Z" fill="white"/>
<path d="M185.667 32.36C183.8 32.36 182.253 32.12 181.027 31.64C179.827 31.16 178.867 30.48 178.147 29.6C177.453 28.6933 176.96 27.64 176.667 26.44C176.373 25.2133 176.227 23.88 176.227 22.44V10.16H182.187V22.64C182.187 23.8933 182.307 24.8933 182.547 25.64C182.813 26.36 183.213 26.8666 183.747 27.16C184.307 27.4533 185.013 27.6 185.867 27.6C186.907 27.6 187.76 27.36 188.427 26.88C189.093 26.3733 189.573 25.56 189.867 24.44C190.187 23.32 190.347 21.84 190.347 20C190.347 18.2666 190.213 16.64 189.947 15.12C189.707 13.5733 189.373 11.92 188.947 10.16H194.947C195.24 11.3066 195.48 12.4133 195.667 13.48C195.88 14.52 196.04 15.5866 196.147 16.68C196.253 17.7466 196.307 18.9066 196.307 20.16C196.307 24.3466 195.427 27.4266 193.667 29.4C191.907 31.3733 189.24 32.36 185.667 32.36ZM184.027 7.75996V7.23996L185.907 0.959961H192.587V1.35996L188.027 7.75996H184.027Z" fill="white"/>
<path d="M219.194 41.6C218.021 41.6 217.074 41.4133 216.354 41.04C215.661 40.6666 215.047 40.0533 214.514 39.2C213.981 38.3733 213.354 37.2666 212.634 35.88L203.314 17.44C202.834 16.48 202.367 15.8133 201.914 15.44C201.487 15.0666 200.967 14.88 200.354 14.88C200.087 14.88 199.754 14.9066 199.354 14.96C198.981 15.0133 198.567 15.1066 198.114 15.24V10.48C198.621 10.32 199.114 10.1866 199.594 10.08C200.101 9.94663 200.754 9.87996 201.554 9.87996C202.594 9.87996 203.474 10.0533 204.194 10.4C204.914 10.7466 205.567 11.28 206.154 12C206.741 12.6933 207.327 13.6133 207.914 14.76L217.914 34.32C218.207 34.88 218.501 35.32 218.794 35.64C219.087 35.9866 219.407 36.2266 219.754 36.36C220.127 36.52 220.554 36.6 221.034 36.6C221.327 36.6 221.621 36.5866 221.914 36.56C222.207 36.5333 222.567 36.4666 222.994 36.36V41C222.621 41.1333 222.247 41.24 221.874 41.32C221.501 41.4266 221.101 41.4933 220.674 41.52C220.247 41.5733 219.754 41.6 219.194 41.6ZM198.354 41.64L208.394 25L210.754 30.2L204.354 41.64H198.354ZM212.634 28.16L210.274 22.96L216.994 10.16H222.994L212.634 28.16Z" fill="white"/>
<path d="M239.717 41.6V19.24C239.717 17.6666 239.437 16.4933 238.877 15.72C238.344 14.92 237.49 14.52 236.317 14.52C235.197 14.52 234.304 14.8 233.637 15.36C232.997 15.92 232.544 16.7333 232.277 17.8C232.01 18.8666 231.877 20.1733 231.877 21.72V32H225.917V10.16H230.477L231.277 12.96H231.597C232.077 12.2133 232.637 11.6133 233.277 11.16C233.944 10.68 234.677 10.3333 235.477 10.12C236.277 9.87996 237.13 9.75996 238.037 9.75996C239.557 9.75996 240.89 10.04 242.037 10.6C243.184 11.16 244.077 12.0266 244.717 13.2C245.357 14.3733 245.677 15.8933 245.677 17.76V41.6H239.717Z" fill="white"/>
<path d="M8.57724 77.4C6.87057 77.4 5.4039 76.9466 4.17724 76.04C2.95057 75.1066 2.01724 73.8 1.37724 72.12C0.737236 70.4133 0.417236 68.4266 0.417236 66.16C0.417236 62.4266 1.17724 59.6 2.69724 57.68C4.21724 55.7333 6.2439 54.76 8.77724 54.76C9.81724 54.76 10.7239 54.9066 11.4972 55.2C12.2972 55.4666 12.9906 55.84 13.5772 56.32C14.1639 56.8 14.6706 57.3466 15.0972 57.96H15.2572L15.7772 55.16H20.8172V70.08C20.8172 70.9866 20.9772 71.6 21.2972 71.92C21.6439 72.24 22.0306 72.4 22.4572 72.4C22.6439 72.4 22.8572 72.3733 23.0972 72.32C23.3372 72.2666 23.5106 72.2266 23.6172 72.2V76.88C23.4839 76.96 23.2572 77.04 22.9372 77.12C22.6172 77.2 22.2706 77.2666 21.8972 77.32C21.5506 77.3733 21.2306 77.4 20.9372 77.4C19.6039 77.4 18.5239 77.16 17.6972 76.68C16.8706 76.2 16.2306 75.3466 15.7772 74.12H15.3772C14.9772 74.7066 14.4572 75.2533 13.8172 75.76C13.1772 76.2666 12.4172 76.6666 11.5372 76.96C10.6572 77.2533 9.67057 77.4 8.57724 77.4ZM10.7772 72.72C11.8706 72.72 12.7372 72.4933 13.3772 72.04C14.0439 71.5866 14.5239 70.8933 14.8172 69.96C15.1106 69 15.2572 67.8 15.2572 66.36V66.12C15.2572 63.9866 14.9239 62.3733 14.2572 61.28C13.6172 60.16 12.4306 59.6 10.6972 59.6C9.2839 59.6 8.23057 60.16 7.53724 61.28C6.8439 62.4 6.49724 64.04 6.49724 66.2C6.49724 68.3333 6.8439 69.96 7.53724 71.08C8.23057 72.1733 9.31057 72.72 10.7772 72.72Z" fill="white"/>
<path d="M36.9557 77.36C35.089 77.36 33.5423 77.12 32.3157 76.64C31.1157 76.16 30.1557 75.48 29.4357 74.6C28.7423 73.6933 28.249 72.64 27.9557 71.44C27.6623 70.2133 27.5157 68.88 27.5157 67.44V55.16H33.4757V67.64C33.4757 68.8933 33.5957 69.8933 33.8357 70.64C34.1023 71.36 34.5023 71.8666 35.0357 72.16C35.5957 72.4533 36.3023 72.6 37.1557 72.6C38.1957 72.6 39.049 72.36 39.7157 71.88C40.3823 71.3733 40.8623 70.56 41.1557 69.44C41.4757 68.32 41.6357 66.84 41.6357 65C41.6357 63.2666 41.5023 61.64 41.2357 60.12C40.9957 58.5733 40.6623 56.92 40.2357 55.16H46.2357C46.529 56.3066 46.769 57.4133 46.9557 58.48C47.169 59.52 47.329 60.5866 47.4357 61.68C47.5423 62.7466 47.5957 63.9066 47.5957 65.16C47.5957 69.3466 46.7157 72.4266 44.9557 74.4C43.1957 76.3733 40.529 77.36 36.9557 77.36Z" fill="white"/>
<path d="M63.1938 77.4C61.8338 77.4 60.6071 77.1866 59.5138 76.76C58.4471 76.3333 57.5938 75.6 56.9538 74.56C56.3138 73.4933 55.9938 72.0266 55.9938 70.16V59.64H50.5138V55.16H69.7138V59.64H61.9538V70.16C61.9538 70.72 62.0605 71.1866 62.2738 71.56C62.4871 71.9333 62.7938 72.2133 63.1938 72.4C63.5938 72.56 64.0471 72.64 64.5538 72.64C65.2205 72.64 65.8605 72.5733 66.4738 72.44C67.0871 72.3066 67.7005 72.1466 68.3138 71.96V76.4C67.7271 76.6666 66.9805 76.8933 66.0738 77.08C65.1938 77.2933 64.2338 77.4 63.1938 77.4Z" fill="white"/>
<path d="M88.3107 86.6V64.24C88.3107 62.6666 88.0307 61.4933 87.4707 60.72C86.9373 59.92 86.084 59.52 84.9107 59.52C83.7907 59.52 82.8973 59.8 82.2307 60.36C81.5907 60.92 81.1373 61.7333 80.8707 62.8C80.604 63.8666 80.4707 65.1733 80.4707 66.72V77H74.5107V55.16H79.0707L79.8707 57.96H80.1907C80.6707 57.2133 81.2307 56.6133 81.8707 56.16C82.5373 55.68 83.2707 55.3333 84.0707 55.12C84.8707 54.88 85.724 54.76 86.6307 54.76C88.1507 54.76 89.484 55.04 90.6307 55.6C91.7773 56.16 92.6707 57.0266 93.3107 58.2C93.9507 59.3733 94.2707 60.8933 94.2707 62.76V86.6H88.3107ZM80.9507 52.76V52.24L82.8307 45.96H89.5107V46.36L84.9507 52.76H80.9507Z" fill="white"/>
<path d="M118.584 77.4C117.224 77.4 115.998 77.1866 114.904 76.76C113.838 76.3333 112.984 75.6 112.344 74.56C111.704 73.4933 111.384 72.0266 111.384 70.16V59.64H105.904V55.16H125.104V59.64H117.344V70.16C117.344 70.72 117.451 71.1866 117.664 71.56C117.878 71.9333 118.184 72.2133 118.584 72.4C118.984 72.56 119.438 72.64 119.944 72.64C120.611 72.64 121.251 72.5733 121.864 72.44C122.478 72.3066 123.091 72.1466 123.704 71.96V76.4C123.118 76.6666 122.371 76.8933 121.464 77.08C120.584 77.2933 119.624 77.4 118.584 77.4Z" fill="white"/>
<path d="M143.701 86.6V64.24C143.701 62.6666 143.421 61.4933 142.861 60.72C142.328 59.92 141.475 59.52 140.301 59.52C139.181 59.52 138.288 59.8 137.621 60.36C136.981 60.92 136.528 61.7333 136.261 62.8C135.995 63.8666 135.861 65.1733 135.861 66.72V77H129.901V55.16H134.461L135.261 57.96H135.581C136.061 57.2133 136.621 56.6133 137.261 56.16C137.928 55.68 138.661 55.3333 139.461 55.12C140.261 54.88 141.115 54.76 142.021 54.76C143.541 54.76 144.875 55.04 146.021 55.6C147.168 56.16 148.061 57.0266 148.701 58.2C149.341 59.3733 149.661 60.8933 149.661 62.76V86.6H143.701Z" fill="white"/>
<path d="M173.935 86.6V77.16C171.428 76.92 169.295 76.32 167.535 75.36C165.802 74.3733 164.468 73.0933 163.535 71.52C162.628 69.92 162.175 68.1066 162.175 66.08C162.175 64 162.588 62.16 163.415 60.56C164.268 58.96 165.562 57.68 167.295 56.72C169.055 55.76 171.268 55.2 173.935 55.04V46.6H179.455V55.04C181.988 55.2533 184.122 55.8533 185.855 56.84C187.588 57.8 188.895 59.0666 189.775 60.64C190.682 62.2133 191.135 64.0266 191.135 66.08C191.135 68.1066 190.695 69.92 189.815 71.52C188.962 73.12 187.668 74.4133 185.935 75.4C184.228 76.36 182.068 76.9466 179.455 77.16V86.6H173.935ZM173.935 72.84V59.32C172.788 59.48 171.788 59.8666 170.935 60.48C170.082 61.0666 169.428 61.84 168.975 62.8C168.522 63.76 168.295 64.8533 168.295 66.08C168.295 67.3333 168.508 68.44 168.935 69.4C169.388 70.36 170.028 71.1333 170.855 71.72C171.708 72.3066 172.735 72.68 173.935 72.84ZM179.455 72.84C180.655 72.68 181.668 72.3066 182.495 71.72C183.322 71.1333 183.948 70.36 184.375 69.4C184.802 68.44 185.015 67.3333 185.015 66.08C185.015 64.24 184.522 62.72 183.535 61.52C182.548 60.32 181.188 59.6133 179.455 59.4V72.84Z" fill="white"/>
<path d="M215.913 66.04C215.913 67.8533 215.66 69.4666 215.153 70.88C214.673 72.2933 213.967 73.4933 213.033 74.48C212.127 75.44 211.02 76.1733 209.713 76.68C208.406 77.16 206.927 77.4 205.273 77.4C203.753 77.4 202.34 77.16 201.033 76.68C199.753 76.1733 198.646 75.44 197.713 74.48C196.78 73.4933 196.047 72.2933 195.513 70.88C195.007 69.4666 194.753 67.8533 194.753 66.04C194.753 63.6133 195.18 61.5733 196.033 59.92C196.887 58.24 198.113 56.96 199.713 56.08C201.313 55.2 203.207 54.76 205.393 54.76C207.447 54.76 209.26 55.2 210.833 56.08C212.407 56.96 213.647 58.24 214.553 59.92C215.46 61.5733 215.913 63.6133 215.913 66.04ZM200.833 66.04C200.833 67.48 200.98 68.6933 201.273 69.68C201.593 70.64 202.087 71.3733 202.753 71.88C203.42 72.36 204.286 72.6 205.353 72.6C206.42 72.6 207.273 72.36 207.913 71.88C208.58 71.3733 209.06 70.64 209.353 69.68C209.673 68.6933 209.833 67.48 209.833 66.04C209.833 64.6 209.673 63.4 209.353 62.44C209.06 61.48 208.58 60.76 207.913 60.28C207.247 59.8 206.38 59.56 205.313 59.56C203.74 59.56 202.593 60.1066 201.873 61.2C201.18 62.2666 200.833 63.88 200.833 66.04Z" fill="white"/>
<path d="M220.239 86.6V66.04C220.239 63.64 220.639 61.6 221.439 59.92C222.239 58.24 223.385 56.96 224.879 56.08C226.399 55.2 228.199 54.76 230.279 54.76C232.385 54.76 234.212 55.2 235.759 56.08C237.305 56.96 238.505 58.2533 239.359 59.96C240.212 61.6666 240.639 63.7733 240.639 66.28C240.639 68.7066 240.185 70.7466 239.279 72.4C238.372 74.0533 237.212 75.3066 235.799 76.16C234.385 76.9866 232.905 77.4 231.359 77.4C230.345 77.4 229.425 77.2533 228.599 76.96C227.772 76.6666 226.999 76.3066 226.279 75.88H225.919C225.972 76.4933 226.039 77.3066 226.119 78.32C226.199 79.3333 226.239 80.2666 226.239 81.12V86.6H220.239ZM230.519 72.6C231.319 72.6 232.025 72.3866 232.639 71.96C233.252 71.5066 233.719 70.8133 234.039 69.88C234.385 68.9466 234.559 67.7466 234.559 66.28C234.559 63.8533 234.172 62.1333 233.399 61.12C232.652 60.08 231.572 59.56 230.159 59.56C228.825 59.56 227.839 60.04 227.199 61C226.559 61.96 226.239 63.5466 226.239 65.76V70.92C226.799 71.48 227.452 71.9066 228.199 72.2C228.972 72.4666 229.745 72.6 230.519 72.6Z" fill="white"/>
<path d="M252.405 77.4C250.699 77.4 249.232 76.9466 248.005 76.04C246.779 75.1066 245.845 73.8 245.205 72.12C244.565 70.4133 244.245 68.4266 244.245 66.16C244.245 62.4266 245.005 59.6 246.525 57.68C248.045 55.7333 250.072 54.76 252.605 54.76C253.645 54.76 254.552 54.9066 255.325 55.2C256.125 55.4666 256.819 55.84 257.405 56.32C257.992 56.8 258.499 57.3466 258.925 57.96H259.085L259.605 55.16H264.645V70.08C264.645 70.9866 264.805 71.6 265.125 71.92C265.472 72.24 265.859 72.4 266.285 72.4C266.472 72.4 266.685 72.3733 266.925 72.32C267.165 72.2666 267.339 72.2266 267.445 72.2V76.88C267.312 76.96 267.085 77.04 266.765 77.12C266.445 77.2 266.099 77.2666 265.725 77.32C265.379 77.3733 265.059 77.4 264.765 77.4C263.432 77.4 262.352 77.16 261.525 76.68C260.699 76.2 260.059 75.3466 259.605 74.12H259.205C258.805 74.7066 258.285 75.2533 257.645 75.76C257.005 76.2666 256.245 76.6666 255.365 76.96C254.485 77.2533 253.499 77.4 252.405 77.4ZM254.605 72.72C255.699 72.72 256.565 72.4933 257.205 72.04C257.872 71.5866 258.352 70.8933 258.645 69.96C258.939 69 259.085 67.8 259.085 66.36V66.12C259.085 63.9866 258.752 62.3733 258.085 61.28C257.445 60.16 256.259 59.6 254.525 59.6C253.112 59.6 252.059 60.16 251.365 61.28C250.672 62.4 250.325 64.04 250.325 66.2C250.325 68.3333 250.672 69.96 251.365 71.08C252.059 72.1733 253.139 72.72 254.605 72.72ZM252.965 52.76V52.24L254.845 45.96H261.525V46.36L256.965 52.76H252.965Z" fill="white"/>
<path d="M270.134 73.76C270.134 71.84 271.614 70.32 273.534 70.32C275.454 70.32 276.974 71.84 276.974 73.76C276.974 75.72 275.454 77.24 273.534 77.24C271.614 77.24 270.134 75.72 270.134 73.76Z" fill="white"/>
</svg>
