<svg width="293" height="21" viewBox="0 0 293 21" fill="none" xmlns="http://www.w3.org/2000/svg">
<path d="M0.484741 20.51V0.517991H11.3767V3.98999H4.65674V20.51H0.484741Z" fill="#101219"/>
<path d="M21.5211 8.74999L25.6931 0.517991H30.2571L23.6211 12.726V20.51H19.4211V12.866L12.7851 0.517991H17.3771L21.5211 8.74999Z" fill="#101219"/>
<path d="M39.1617 0.517991C41.7377 0.517991 43.6137 1.07799 44.7897 2.19799C45.9844 3.29932 46.5817 4.82066 46.5817 6.76199C46.5817 7.63932 46.451 8.47933 46.1897 9.28199C45.9284 10.066 45.4897 10.7753 44.8737 11.41C44.2764 12.026 43.483 12.5113 42.4937 12.866C41.5044 13.2207 40.2817 13.398 38.8257 13.398H37.0057V20.51H32.7777V0.517991H39.1617ZM38.9377 3.98999H37.0057V9.92599H38.4057C39.2084 9.92599 39.899 9.82332 40.4777 9.61799C41.0564 9.41266 41.5044 9.08599 41.8217 8.63799C42.139 8.18999 42.2977 7.61133 42.2977 6.90199C42.2977 5.91266 42.027 5.18466 41.4857 4.71799C40.9444 4.23266 40.095 3.98999 38.9377 3.98999Z" fill="#101219"/>
<path d="M64.6677 20.51H55.5677V18.102L58.0037 16.982V4.04599L55.5677 2.92599V0.517991H64.6677V2.92599L62.2317 4.04599V16.982L64.6677 18.102V20.51ZM48.1197 5.27799V4.91399L49.4357 0.517991H54.1117V0.79799L50.9197 5.27799H48.1197Z" fill="#101219"/>
<path d="M66.2305 20.51V17.178L72.3905 10.038L66.4825 3.65399V0.517991H80.8465V3.98999H74.2665C73.8932 3.98999 73.4732 3.98066 73.0065 3.96199C72.5585 3.94333 72.0732 3.90599 71.5505 3.84999L76.5625 9.39399V10.458L70.7105 17.178C71.3638 17.122 71.9612 17.0847 72.5025 17.066C73.0625 17.0287 73.6598 17.01 74.2945 17.01H81.0985V20.51H66.2305Z" fill="#101219"/>
<path d="M91.9933 20.51H87.7653V4.04599H82.3333V0.517991H97.4253V4.04599H91.9933V20.51Z" fill="#101219"/>
<path d="M112.016 20.51H100.508V0.517991H112.016V3.98999H104.736V8.38599H111.512V11.858H104.736V17.01H112.016V20.51Z" fill="#101219"/>
<path d="M129.263 20.51H125.035V4.04599H119.603V0.517991H134.695V4.04599H129.263V20.51Z" fill="#101219"/>
<path d="M155.375 10.486C155.375 12.0353 155.179 13.4447 154.787 14.714C154.413 15.9647 153.835 17.0473 153.051 17.962C152.285 18.8767 151.296 19.5767 150.083 20.062C148.888 20.5473 147.479 20.79 145.855 20.79C144.231 20.79 142.812 20.5473 141.599 20.062C140.404 19.558 139.415 18.858 138.631 17.962C137.865 17.0473 137.287 15.9553 136.895 14.686C136.521 13.4167 136.335 12.0073 136.335 10.458C136.335 8.38599 136.671 6.58466 137.343 5.05399C138.034 3.52332 139.079 2.33799 140.479 1.49799C141.898 0.639325 143.699 0.209991 145.883 0.209991C148.048 0.209991 149.831 0.639325 151.231 1.49799C152.631 2.33799 153.667 3.53266 154.339 5.08199C155.03 6.61266 155.375 8.41399 155.375 10.486ZM140.787 10.486C140.787 11.886 140.964 13.09 141.319 14.098C141.673 15.106 142.224 15.8807 142.971 16.422C143.717 16.9633 144.679 17.234 145.855 17.234C147.068 17.234 148.039 16.9633 148.767 16.422C149.514 15.8807 150.055 15.106 150.391 14.098C150.745 13.09 150.923 11.886 150.923 10.486C150.923 8.37666 150.531 6.72466 149.747 5.52999C148.963 4.33532 147.675 3.73799 145.883 3.73799C144.688 3.73799 143.717 4.00866 142.971 4.54999C142.224 5.09133 141.673 5.86599 141.319 6.87399C140.964 7.88199 140.787 9.08599 140.787 10.486Z" fill="#101219"/>
<path d="M177.24 20.51H171.864L163.156 5.38999H163.044C163.063 5.85666 163.081 6.33266 163.1 6.81799C163.119 7.28466 163.137 7.76066 163.156 8.24599C163.193 8.71266 163.221 9.18866 163.24 9.67399C163.259 10.1407 163.277 10.6167 163.296 11.102V20.51H159.516V0.517991H164.864L173.544 15.498H173.628C173.609 15.0313 173.591 14.574 173.572 14.126C173.553 13.6593 173.535 13.202 173.516 12.754C173.516 12.2873 173.507 11.83 173.488 11.382C173.469 10.9153 173.451 10.4487 173.432 9.98199V0.517991H177.24V20.51Z" fill="#101219"/>
<path d="M195.38 20.51H191.152V4.04599H185.72V0.517991H200.812V4.04599H195.38V20.51Z" fill="#101219"/>
<path d="M210.279 0.517991C212.855 0.517991 214.731 1.07799 215.907 2.19799C217.102 3.29932 217.699 4.82066 217.699 6.76199C217.699 7.63932 217.568 8.47933 217.307 9.28199C217.046 10.066 216.607 10.7753 215.991 11.41C215.394 12.026 214.6 12.5113 213.611 12.866C212.622 13.2207 211.399 13.398 209.943 13.398H208.123V20.51H203.895V0.517991H210.279ZM210.055 3.98999H208.123V9.92599H209.523C210.326 9.92599 211.016 9.82332 211.595 9.61799C212.174 9.41266 212.622 9.08599 212.939 8.63799C213.256 8.18999 213.415 7.61133 213.415 6.90199C213.415 5.91266 213.144 5.18466 212.603 4.71799C212.062 4.23266 211.212 3.98999 210.055 3.98999Z" fill="#101219"/>
<path d="M239.621 10.486C239.621 12.0353 239.425 13.4447 239.033 14.714C238.66 15.9647 238.081 17.0473 237.297 17.962C236.532 18.8767 235.542 19.5767 234.329 20.062C233.134 20.5473 231.725 20.79 230.101 20.79C228.477 20.79 227.058 20.5473 225.845 20.062C224.65 19.558 223.661 18.858 222.877 17.962C222.112 17.0473 221.533 15.9553 221.141 14.686C220.768 13.4167 220.581 12.0073 220.581 10.458C220.581 8.38599 220.917 6.58466 221.589 5.05399C222.28 3.52332 223.325 2.33799 224.725 1.49799C226.144 0.639325 227.945 0.209991 230.129 0.209991C232.294 0.209991 234.077 0.639325 235.477 1.49799C236.877 2.33799 237.913 3.53266 238.585 5.08199C239.276 6.61266 239.621 8.41399 239.621 10.486ZM225.033 10.486C225.033 11.886 225.21 13.09 225.565 14.098C225.92 15.106 226.47 15.8807 227.217 16.422C227.964 16.9633 228.925 17.234 230.101 17.234C231.314 17.234 232.285 16.9633 233.013 16.422C233.76 15.8807 234.301 15.106 234.637 14.098C234.992 13.09 235.169 11.886 235.169 10.486C235.169 8.37666 234.777 6.72466 233.993 5.52999C233.209 4.33532 231.921 3.73799 230.129 3.73799C228.934 3.73799 227.964 4.00866 227.217 4.54999C226.47 5.09133 225.92 5.86599 225.565 6.87399C225.21 7.88199 225.033 9.08599 225.033 10.486Z" fill="#101219"/>
<path d="M259.371 20.51H254.527L249.879 12.95L245.231 20.51H240.695L247.331 10.206L241.115 0.517991H245.791L250.103 7.71399L254.331 0.517991H258.895L252.623 10.43L259.371 20.51Z" fill="#101219"/>
<path d="M284.907 10.486C284.907 12.0353 284.711 13.4447 284.319 14.714C283.946 15.9647 283.367 17.0473 282.583 17.962C281.818 18.8767 280.828 19.5767 279.615 20.062C278.42 20.5473 277.011 20.79 275.387 20.79C273.763 20.79 272.344 20.5473 271.131 20.062C269.936 19.558 268.947 18.858 268.163 17.962C267.398 17.0473 266.819 15.9553 266.427 14.686C266.054 13.4167 265.867 12.0073 265.867 10.458C265.867 8.38599 266.203 6.58466 266.875 5.05399C267.566 3.52332 268.611 2.33799 270.011 1.49799C271.43 0.639325 273.231 0.209991 275.415 0.209991C277.58 0.209991 279.363 0.639325 280.763 1.49799C282.163 2.33799 283.199 3.53266 283.871 5.08199C284.562 6.61266 284.907 8.41399 284.907 10.486ZM270.319 10.486C270.319 11.886 270.496 13.09 270.851 14.098C271.206 15.106 271.756 15.8807 272.503 16.422C273.25 16.9633 274.211 17.234 275.387 17.234C276.6 17.234 277.571 16.9633 278.299 16.422C279.046 15.8807 279.587 15.106 279.923 14.098C280.278 13.09 280.455 11.886 280.455 10.486C280.455 8.37666 280.063 6.72466 279.279 5.52999C278.495 4.33532 277.207 3.73799 275.415 3.73799C274.22 3.73799 273.25 4.00866 272.503 4.54999C271.756 5.09133 271.206 5.86599 270.851 6.87399C270.496 7.88199 270.319 9.08599 270.319 10.486ZM259.651 5.27799V4.91399L260.967 0.517991H265.643V0.79799L262.451 5.27799H259.651Z" fill="#101219"/>
<path d="M288.119 15.134V0.601991H292.067V15.134H288.119ZM287.699 18.382C287.699 17.038 288.735 15.946 290.079 15.946C291.451 15.946 292.515 17.038 292.515 18.382C292.515 19.726 291.451 20.79 290.079 20.79C288.735 20.79 287.699 19.726 287.699 18.382Z" fill="#101219"/>
</svg>
