<svg width="273" height="19" viewBox="0 0 273 19" fill="none" xmlns="http://www.w3.org/2000/svg">
<path d="M0.291016 18.0801V0.944053H14.091V18.0801H10.467V3.96805H3.91502V18.0801H0.291016Z" fill="#101219"/>
<path d="M31.5362 18.0801L30.2882 14.0001H24.0482L22.8002 18.0801H18.8882L24.9362 0.872054H29.3762L35.4482 18.0801H31.5362ZM28.1762 6.96805C28.0962 6.69605 27.9922 6.35205 27.8642 5.93605C27.7362 5.52005 27.6082 5.09605 27.4802 4.66405C27.3522 4.23205 27.2482 3.85605 27.1682 3.53605C27.0882 3.85605 26.9762 4.25605 26.8322 4.73605C26.7042 5.20005 26.5762 5.64805 26.4482 6.08005C26.3362 6.49605 26.2482 6.79205 26.1842 6.96805L24.9602 10.9521H29.4242L28.1762 6.96805ZM16.4882 5.02405V4.71205L17.6162 0.944053H21.6242V1.18405L18.8882 5.02405H16.4882Z" fill="#101219"/>
<path d="M43.0755 0.944053C45.2835 0.944053 46.8915 1.42405 47.8995 2.38405C48.9235 3.32805 49.4355 4.63205 49.4355 6.29605C49.4355 7.04805 49.3235 7.76805 49.0995 8.45605C48.8755 9.12805 48.4995 9.73605 47.9715 10.2801C47.4595 10.8081 46.7795 11.2241 45.9315 11.5281C45.0835 11.8321 44.0355 11.9841 42.7875 11.9841H41.2275V18.0801H37.6035V0.944053H43.0755ZM42.8835 3.92005H41.2275V9.00805H42.4275C43.1155 9.00805 43.7075 8.92005 44.2035 8.74405C44.6995 8.56805 45.0835 8.28805 45.3555 7.90405C45.6275 7.52005 45.7635 7.02405 45.7635 6.41605C45.7635 5.56805 45.5315 4.94405 45.0675 4.54405C44.6035 4.12805 43.8755 3.92005 42.8835 3.92005Z" fill="#101219"/>
<path d="M59.2738 18.0801H55.6498V3.96805H50.9938V0.944053H63.9298V3.96805H59.2738V18.0801Z" fill="#101219"/>
<path d="M76.4363 18.0801H66.5723V0.944053H76.4363V3.92005H70.1963V7.68805H76.0043V10.6641H70.1963V15.0801H76.4363V18.0801Z" fill="#101219"/>
<path d="M99.8591 18.0801H89.9951V0.944053H99.8591V3.92005H93.6191V7.68805H99.4271V10.6641H93.6191V15.0801H99.8591V18.0801ZM82.6991 5.02405V4.71205L83.8271 0.944053H87.8351V1.18405L85.0991 5.02405H82.6991Z" fill="#101219"/>
<path d="M118.631 18.0801H114.023L106.559 5.12005H106.463C106.479 5.52005 106.495 5.92805 106.511 6.34405C106.527 6.74405 106.543 7.15205 106.559 7.56805C106.591 7.96805 106.615 8.37605 106.631 8.79205C106.647 9.19205 106.663 9.60005 106.679 10.0161V18.0801H103.439V0.944053H108.023L115.463 13.7841H115.535C115.519 13.3841 115.503 12.9921 115.487 12.6081C115.471 12.2081 115.455 11.8161 115.439 11.4321C115.439 11.0321 115.431 10.6401 115.415 10.2561C115.399 9.85605 115.383 9.45605 115.367 9.05605V0.944053H118.631V18.0801Z" fill="#101219"/>
<path d="M133.451 18.0801L132.203 14.0001H125.963L124.715 18.0801H120.803L126.851 0.872054H131.291L137.363 18.0801H133.451ZM130.091 6.96805C130.011 6.69605 129.907 6.35205 129.779 5.93605C129.651 5.52005 129.523 5.09605 129.395 4.66405C129.267 4.23205 129.163 3.85605 129.083 3.53605C129.003 3.85605 128.891 4.25605 128.747 4.73605C128.619 5.20005 128.491 5.64805 128.363 6.08005C128.251 6.49605 128.163 6.79205 128.099 6.96805L126.875 10.9521H131.339L130.091 6.96805Z" fill="#101219"/>
<path d="M151.398 18.0801L147.27 4.64005H147.174C147.19 4.96005 147.214 5.44005 147.246 6.08005C147.278 6.72005 147.31 7.40805 147.342 8.14405C147.374 8.86405 147.39 9.52005 147.39 10.1121V18.0801H144.15V0.944053H149.094L153.15 14.0481H153.222L157.518 0.944053H162.462V18.0801H159.078V9.96805C159.078 9.42405 159.086 8.80005 159.102 8.09605C159.134 7.39205 159.158 6.72805 159.174 6.10405C159.206 5.46405 159.23 4.98405 159.246 4.66405H159.15L154.734 18.0801H151.398Z" fill="#101219"/>
<path d="M166.791 18.0801V0.944053H180.591V18.0801H176.967V3.96805H170.415V18.0801H166.791Z" fill="#101219"/>
<path d="M204.636 9.48805C204.636 10.8161 204.468 12.0241 204.132 13.1121C203.812 14.1841 203.316 15.1121 202.644 15.8961C201.988 16.6801 201.14 17.2801 200.1 17.6961C199.076 18.1121 197.868 18.3201 196.476 18.3201C195.084 18.3201 193.868 18.1121 192.828 17.6961C191.804 17.2641 190.956 16.6641 190.284 15.8961C189.628 15.1121 189.132 14.1761 188.796 13.0881C188.476 12.0001 188.316 10.7921 188.316 9.46405C188.316 7.68805 188.604 6.14405 189.18 4.83205C189.772 3.52005 190.668 2.50405 191.868 1.78405C193.084 1.04805 194.628 0.680054 196.5 0.680054C198.356 0.680054 199.884 1.04805 201.084 1.78405C202.284 2.50405 203.172 3.52805 203.748 4.85605C204.34 6.16805 204.636 7.71205 204.636 9.48805ZM192.132 9.48805C192.132 10.6881 192.284 11.7201 192.588 12.5841C192.892 13.4481 193.364 14.1121 194.004 14.5761C194.644 15.0401 195.468 15.2721 196.476 15.2721C197.516 15.2721 198.348 15.0401 198.972 14.5761C199.612 14.1121 200.076 13.4481 200.364 12.5841C200.668 11.7201 200.82 10.6881 200.82 9.48805C200.82 7.68005 200.484 6.26405 199.812 5.24005C199.14 4.21605 198.036 3.70405 196.5 3.70405C195.476 3.70405 194.644 3.93605 194.004 4.40005C193.364 4.86405 192.892 5.52805 192.588 6.39205C192.284 7.25605 192.132 8.28805 192.132 9.48805ZM182.988 5.02405V4.71205L184.116 0.944053H188.124V1.18405L185.388 5.02405H182.988Z" fill="#101219"/>
<path d="M223.374 18.0801H218.766L211.302 5.12005H211.206C211.222 5.52005 211.238 5.92805 211.254 6.34405C211.27 6.74405 211.286 7.15205 211.302 7.56805C211.334 7.96805 211.358 8.37605 211.374 8.79205C211.39 9.19205 211.406 9.60005 211.422 10.0161V18.0801H208.182V0.944053H212.766L220.206 13.7841H220.278C220.262 13.3841 220.246 12.9921 220.23 12.6081C220.214 12.2081 220.198 11.8161 220.182 11.4321C220.182 11.0321 220.174 10.6401 220.158 10.2561C220.142 9.85605 220.126 9.45605 220.11 9.05605V0.944053H223.374V18.0801Z" fill="#101219"/>
<path d="M243.257 9.48805C243.257 10.8161 243.089 12.0241 242.753 13.1121C242.433 14.1841 241.937 15.1121 241.265 15.8961C240.609 16.6801 239.761 17.2801 238.721 17.6961C237.697 18.1121 236.489 18.3201 235.097 18.3201C233.705 18.3201 232.489 18.1121 231.449 17.6961C230.425 17.2641 229.577 16.6641 228.905 15.8961C228.249 15.1121 227.753 14.1761 227.417 13.0881C227.097 12.0001 226.937 10.7921 226.937 9.46405C226.937 7.68805 227.225 6.14405 227.801 4.83205C228.393 3.52005 229.289 2.50405 230.489 1.78405C231.705 1.04805 233.249 0.680054 235.121 0.680054C236.977 0.680054 238.505 1.04805 239.705 1.78405C240.905 2.50405 241.793 3.52805 242.369 4.85605C242.961 6.16805 243.257 7.71205 243.257 9.48805ZM230.753 9.48805C230.753 10.6881 230.905 11.7201 231.209 12.5841C231.513 13.4481 231.985 14.1121 232.625 14.5761C233.265 15.0401 234.089 15.2721 235.097 15.2721C236.137 15.2721 236.969 15.0401 237.593 14.5761C238.233 14.1121 238.697 13.4481 238.985 12.5841C239.289 11.7201 239.441 10.6881 239.441 9.48805C239.441 7.68005 239.105 6.26405 238.433 5.24005C237.761 4.21605 236.657 3.70405 235.121 3.70405C234.097 3.70405 233.265 3.93605 232.625 4.40005C231.985 4.86405 231.513 5.52805 231.209 6.39205C230.905 7.25605 230.753 8.28805 230.753 9.48805Z" fill="#101219"/>
<path d="M251.9 8.00005L255.476 0.944053H259.388L253.7 11.4081V18.0801H250.1V11.5281L244.412 0.944053H248.348L251.9 8.00005Z" fill="#101219"/>
<path d="M259.965 18.0801V15.2241L265.245 9.10405L260.181 3.63205V0.944053H272.493V3.92005H266.853C266.533 3.92005 266.173 3.91205 265.773 3.89605C265.389 3.88005 264.973 3.84805 264.525 3.80005L268.821 8.55205V9.46405L263.805 15.2241C264.365 15.1761 264.877 15.1441 265.341 15.1281C265.821 15.0961 266.333 15.0801 266.877 15.0801H272.709V18.0801H259.965Z" fill="#101219"/>
</svg>
