<svg  viewBox="0 0 328 137" fill="none" xmlns="http://www.w3.org/2000/svg">
<path d="M15.7187 24V2.57997H27.3887V6.29997H20.1887V24H15.7187Z" fill="white"/>
<path d="M35.5334 24.3C34.1334 24.3 33.0034 24.06 32.1434 23.58C31.3034 23.08 30.6934 22.42 30.3134 21.6C29.9334 20.78 29.7434 19.87 29.7434 18.87V7.61997H34.2134V18.21C34.2134 19.19 34.4234 19.85 34.8434 20.19C35.2634 20.53 35.7734 20.7 36.3734 20.7C36.7734 20.7 37.1334 20.68 37.4534 20.64C37.7734 20.58 38.1134 20.51 38.4734 20.43V23.94C38.1134 24.04 37.6634 24.12 37.1234 24.18C36.5834 24.26 36.0534 24.3 35.5334 24.3ZM30.7934 5.81997V5.42997L32.2034 0.719971H37.2134V1.01997L33.7934 5.81997H30.7934Z" fill="white"/>
<path d="M44.7085 24L38.8585 7.61997H43.4485L46.3285 16.71C46.4285 17.01 46.5385 17.37 46.6585 17.79C46.7985 18.21 46.9285 18.62 47.0485 19.02C47.1685 19.42 47.2685 19.76 47.3485 20.04H47.4685C48.1285 19.04 48.6685 17.94 49.0885 16.74C49.5285 15.54 49.8485 14.2 50.0485 12.72C50.2485 11.22 50.3485 9.51997 50.3485 7.61997H54.8485C54.8485 9.77997 54.6685 11.79 54.3085 13.65C53.9485 15.49 53.3185 17.26 52.4185 18.96C51.5385 20.64 50.3085 22.32 48.7285 24H44.7085Z" fill="white"/>
<path d="M64.0728 24.3C61.6728 24.3 59.8628 23.86 58.6428 22.98C57.4228 22.1 56.8128 20.93 56.8128 19.47C56.8128 18.67 56.9628 18.01 57.2628 17.49C57.5628 16.95 57.9828 16.53 58.5228 16.23C59.0628 15.91 59.7028 15.68 60.4428 15.54V15.39C59.4828 15.15 58.7628 14.73 58.2828 14.13C57.8228 13.53 57.5928 12.79 57.5928 11.91C57.5928 10.99 57.8228 10.19 58.2828 9.50997C58.7628 8.80997 59.4828 8.26997 60.4428 7.88997C61.4028 7.50997 62.6128 7.31997 64.0728 7.31997C65.1128 7.31997 66.1628 7.42997 67.2228 7.64997C68.2828 7.84997 69.1928 8.17997 69.9528 8.63997L68.7228 11.79C67.9028 11.35 67.1528 11.05 66.4728 10.89C65.8128 10.71 65.1228 10.62 64.4028 10.62C63.5028 10.62 62.8428 10.78 62.4228 11.1C62.0028 11.4 61.7928 11.84 61.7928 12.42C61.7928 13 62.0028 13.42 62.4228 13.68C62.8628 13.92 63.5128 14.04 64.3728 14.04H66.8028V17.25H64.4028C63.6628 17.25 63.0728 17.32 62.6328 17.46C62.1928 17.58 61.8728 17.78 61.6728 18.06C61.4728 18.32 61.3728 18.66 61.3728 19.08C61.3728 19.74 61.6428 20.22 62.1828 20.52C62.7428 20.82 63.5528 20.97 64.6128 20.97C65.5328 20.97 66.3528 20.87 67.0728 20.67C67.8128 20.45 68.6028 20.08 69.4428 19.56V23.07C68.7228 23.49 67.9528 23.8 67.1328 24C66.3128 24.2 65.2928 24.3 64.0728 24.3Z" fill="white"/>
<path d="M81.08 24.3C80.06 24.3 79.14 24.14 78.32 23.82C77.52 23.5 76.88 22.95 76.4 22.17C75.92 21.37 75.68 20.27 75.68 18.87V10.98H71.57V7.61997H85.97V10.98H80.15V18.87C80.15 19.29 80.23 19.64 80.39 19.92C80.55 20.2 80.78 20.41 81.08 20.55C81.38 20.67 81.72 20.73 82.1 20.73C82.6 20.73 83.08 20.68 83.54 20.58C84 20.48 84.46 20.36 84.92 20.22V23.55C84.48 23.75 83.92 23.92 83.24 24.06C82.58 24.22 81.86 24.3 81.08 24.3Z" fill="white"/>
<path d="M94.9517 24.3C92.5517 24.3 90.7417 23.86 89.5217 22.98C88.3017 22.1 87.6917 20.93 87.6917 19.47C87.6917 18.67 87.8417 18.01 88.1417 17.49C88.4417 16.95 88.8617 16.53 89.4017 16.23C89.9417 15.91 90.5817 15.68 91.3217 15.54V15.39C90.3617 15.15 89.6417 14.73 89.1617 14.13C88.7017 13.53 88.4717 12.79 88.4717 11.91C88.4717 10.99 88.7017 10.19 89.1617 9.50997C89.6417 8.80997 90.3617 8.26997 91.3217 7.88997C92.2817 7.50997 93.4917 7.31997 94.9517 7.31997C95.9917 7.31997 97.0417 7.42997 98.1017 7.64997C99.1617 7.84997 100.072 8.17997 100.832 8.63997L99.6017 11.79C98.7817 11.35 98.0317 11.05 97.3517 10.89C96.6917 10.71 96.0017 10.62 95.2817 10.62C94.3817 10.62 93.7217 10.78 93.3017 11.1C92.8817 11.4 92.6717 11.84 92.6717 12.42C92.6717 13 92.8817 13.42 93.3017 13.68C93.7417 13.92 94.3917 14.04 95.2517 14.04H97.6817V17.25H95.2817C94.5417 17.25 93.9517 17.32 93.5117 17.46C93.0717 17.58 92.7517 17.78 92.5517 18.06C92.3517 18.32 92.2517 18.66 92.2517 19.08C92.2517 19.74 92.5217 20.22 93.0617 20.52C93.6217 20.82 94.4317 20.97 95.4917 20.97C96.4117 20.97 97.2317 20.87 97.9517 20.67C98.6917 20.45 99.4817 20.08 100.322 19.56V23.07C99.6017 23.49 98.8317 23.8 98.0117 24C97.1917 24.2 96.1717 24.3 94.9517 24.3Z" fill="white"/>
<path d="M118 24.03L117.67 23.01C116.8 24.6 114.25 24.84 113.38 22.95V29.61H109.15V8.51997H113.41V17.94C113.41 20.97 117.4 20.7 117.4 18V8.51997H121.66L121.72 24.06L118 24.03Z" fill="white"/>
<path d="M131.602 24.3C129.202 24.3 127.392 23.86 126.172 22.98C124.952 22.1 124.342 20.93 124.342 19.47C124.342 18.67 124.492 18.01 124.792 17.49C125.092 16.95 125.512 16.53 126.052 16.23C126.592 15.91 127.232 15.68 127.972 15.54V15.39C127.012 15.15 126.292 14.73 125.812 14.13C125.352 13.53 125.122 12.79 125.122 11.91C125.122 10.99 125.352 10.19 125.812 9.50997C126.292 8.80997 127.012 8.26997 127.972 7.88997C128.932 7.50997 130.142 7.31997 131.602 7.31997C132.642 7.31997 133.692 7.42997 134.752 7.64997C135.812 7.84997 136.722 8.17997 137.482 8.63997L136.252 11.79C135.432 11.35 134.682 11.05 134.002 10.89C133.342 10.71 132.652 10.62 131.932 10.62C131.032 10.62 130.372 10.78 129.952 11.1C129.532 11.4 129.322 11.84 129.322 12.42C129.322 13 129.532 13.42 129.952 13.68C130.392 13.92 131.042 14.04 131.902 14.04H134.332V17.25H131.932C131.192 17.25 130.602 17.32 130.162 17.46C129.722 17.58 129.402 17.78 129.202 18.06C129.002 18.32 128.902 18.66 128.902 19.08C128.902 19.74 129.172 20.22 129.712 20.52C130.272 20.82 131.082 20.97 132.142 20.97C133.062 20.97 133.882 20.87 134.602 20.67C135.342 20.45 136.132 20.08 136.972 19.56V23.07C136.252 23.49 135.482 23.8 134.662 24C133.842 24.2 132.822 24.3 131.602 24.3ZM130.372 5.81997V5.42997L131.782 0.719971H136.792V1.01997L133.372 5.81997H130.372Z" fill="white"/>
<path d="M153.049 24.3C152.249 24.3 151.589 24.16 151.069 23.88C150.569 23.6 150.169 23.21 149.869 22.71C149.569 22.21 149.309 21.63 149.089 20.97L147.799 16.98C147.679 16.58 147.539 16.18 147.379 15.78C147.239 15.36 147.099 14.94 146.959 14.52C146.819 14.08 146.699 13.65 146.599 13.23C146.519 12.79 146.459 12.36 146.419 11.94H146.329C146.269 12.82 146.149 13.63 145.969 14.37C145.809 15.09 145.589 15.93 145.309 16.89L143.299 24H138.409L144.319 7.73997L143.989 6.77997C143.669 5.83997 143.209 5.24997 142.609 5.00997C142.029 4.76997 141.349 4.64997 140.569 4.64997C140.229 4.64997 139.919 4.66997 139.639 4.70997C139.359 4.74997 139.119 4.78997 138.919 4.82997V1.28997C139.099 1.24997 139.309 1.20997 139.549 1.16997C139.809 1.12997 140.089 1.09997 140.389 1.07997C140.689 1.05997 141.009 1.04997 141.349 1.04997C142.489 1.04997 143.469 1.17997 144.289 1.43997C145.109 1.69997 145.809 2.15997 146.389 2.81997C146.989 3.47997 147.519 4.41997 147.979 5.63997L152.449 17.58C152.769 18.4 153.029 19.03 153.229 19.47C153.449 19.89 153.659 20.18 153.859 20.34C154.079 20.48 154.329 20.55 154.609 20.55C154.829 20.55 155.009 20.54 155.149 20.52C155.289 20.48 155.449 20.44 155.629 20.4V23.85C155.469 23.93 155.229 24 154.909 24.06C154.609 24.14 154.289 24.2 153.949 24.24C153.609 24.28 153.309 24.3 153.049 24.3Z" fill="white"/>
<path d="M172.563 15.78C172.563 17.14 172.373 18.35 171.993 19.41C171.633 20.47 171.103 21.37 170.403 22.11C169.723 22.83 168.893 23.38 167.913 23.76C166.933 24.12 165.823 24.3 164.583 24.3C163.443 24.3 162.383 24.12 161.403 23.76C160.443 23.38 159.613 22.83 158.913 22.11C158.213 21.37 157.663 20.47 157.263 19.41C156.883 18.35 156.693 17.14 156.693 15.78C156.693 13.96 157.013 12.43 157.653 11.19C158.293 9.92997 159.213 8.96997 160.413 8.30997C161.613 7.64997 163.033 7.31997 164.673 7.31997C166.213 7.31997 167.573 7.64997 168.753 8.30997C169.933 8.96997 170.863 9.92997 171.543 11.19C172.223 12.43 172.563 13.96 172.563 15.78ZM161.253 15.78C161.253 16.86 161.363 17.77 161.583 18.51C161.823 19.23 162.193 19.78 162.693 20.16C163.193 20.52 163.843 20.7 164.643 20.7C165.443 20.7 166.083 20.52 166.563 20.16C167.063 19.78 167.423 19.23 167.643 18.51C167.883 17.77 168.003 16.86 168.003 15.78C168.003 14.7 167.883 13.8 167.643 13.08C167.423 12.36 167.063 11.82 166.563 11.46C166.063 11.1 165.413 10.92 164.613 10.92C163.433 10.92 162.573 11.33 162.033 12.15C161.513 12.95 161.253 14.16 161.253 15.78Z" fill="white"/>
<path d="M182.587 30.06C183.007 29.28 183.337 28.58 183.577 27.96C183.837 27.36 183.967 26.8 183.967 26.28C183.967 25.82 183.887 25.47 183.727 25.23C183.567 25.01 183.297 24.82 182.917 24.66C182.537 24.52 182.007 24.36 181.327 24.18C180.307 23.9 179.417 23.54 178.657 23.1C177.897 22.64 177.267 22.08 176.767 21.42C176.267 20.76 175.887 20 175.627 19.14C175.387 18.26 175.267 17.27 175.267 16.17C175.267 14.63 175.467 13.31 175.867 12.21C176.267 11.09 176.827 10.17 177.547 9.44997C178.287 8.72997 179.157 8.19997 180.157 7.85997C181.157 7.49997 182.257 7.31997 183.457 7.31997C184.357 7.31997 185.197 7.40997 185.977 7.58997C186.777 7.76997 187.577 8.04997 188.377 8.42997L187.087 11.88C186.347 11.58 185.687 11.35 185.107 11.19C184.547 11.01 183.957 10.92 183.337 10.92C182.517 10.92 181.847 11.12 181.327 11.52C180.807 11.92 180.427 12.48 180.187 13.2C179.947 13.92 179.827 14.77 179.827 15.75C179.827 16.43 179.877 17.03 179.977 17.55C180.097 18.07 180.287 18.53 180.547 18.93C180.827 19.33 181.217 19.67 181.717 19.95C182.217 20.23 182.867 20.46 183.667 20.64C184.887 20.92 185.827 21.25 186.487 21.63C187.167 21.99 187.637 22.45 187.897 23.01C188.177 23.55 188.317 24.22 188.317 25.02C188.317 25.94 188.167 26.83 187.867 27.69C187.587 28.57 187.237 29.36 186.817 30.06H182.587Z" fill="white"/>
<path d="M205.269 24.3C204.249 24.3 203.329 24.14 202.509 23.82C201.709 23.5 201.069 22.95 200.589 22.17C200.109 21.37 199.869 20.27 199.869 18.87V10.98H195.759V7.61997H210.159V10.98H204.339V18.87C204.339 19.29 204.419 19.64 204.579 19.92C204.739 20.2 204.969 20.41 205.269 20.55C205.569 20.67 205.909 20.73 206.289 20.73C206.789 20.73 207.269 20.68 207.729 20.58C208.189 20.48 208.649 20.36 209.109 20.22V23.55C208.669 23.75 208.109 23.92 207.429 24.06C206.769 24.22 206.049 24.3 205.269 24.3Z" fill="white"/>
<path d="M228.051 15.78C228.051 17.14 227.861 18.35 227.481 19.41C227.121 20.47 226.591 21.37 225.891 22.11C225.211 22.83 224.381 23.38 223.401 23.76C222.421 24.12 221.311 24.3 220.071 24.3C218.931 24.3 217.871 24.12 216.891 23.76C215.931 23.38 215.101 22.83 214.401 22.11C213.701 21.37 213.151 20.47 212.751 19.41C212.371 18.35 212.181 17.14 212.181 15.78C212.181 13.96 212.501 12.43 213.141 11.19C213.781 9.92997 214.701 8.96997 215.901 8.30997C217.101 7.64997 218.521 7.31997 220.161 7.31997C221.701 7.31997 223.061 7.64997 224.241 8.30997C225.421 8.96997 226.351 9.92997 227.031 11.19C227.711 12.43 228.051 13.96 228.051 15.78ZM216.741 15.78C216.741 16.86 216.851 17.77 217.071 18.51C217.311 19.23 217.681 19.78 218.181 20.16C218.681 20.52 219.331 20.7 220.131 20.7C220.931 20.7 221.571 20.52 222.051 20.16C222.551 19.78 222.911 19.23 223.131 18.51C223.371 17.77 223.491 16.86 223.491 15.78C223.491 14.7 223.371 13.8 223.131 13.08C222.911 12.36 222.551 11.82 222.051 11.46C221.551 11.1 220.901 10.92 220.101 10.92C218.921 10.92 218.061 11.33 217.521 12.15C217.001 12.95 216.741 14.16 216.741 15.78Z" fill="white"/>
<path d="M238.735 24.27C237.335 24.27 236.175 24.09 235.255 23.73C234.355 23.37 233.635 22.86 233.095 22.2C232.575 21.52 232.205 20.73 231.985 19.83C231.765 18.91 231.655 17.91 231.655 16.83V7.61997H236.125V16.98C236.125 17.92 236.215 18.67 236.395 19.23C236.595 19.77 236.895 20.15 237.295 20.37C237.715 20.59 238.245 20.7 238.885 20.7C239.665 20.7 240.305 20.52 240.805 20.16C241.305 19.78 241.665 19.17 241.885 18.33C242.125 17.49 242.245 16.38 242.245 15C242.245 13.7 242.145 12.48 241.945 11.34C241.765 10.18 241.515 8.93997 241.195 7.61997H245.695C245.915 8.47997 246.095 9.30997 246.235 10.11C246.395 10.89 246.515 11.69 246.595 12.51C246.675 13.31 246.715 14.18 246.715 15.12C246.715 18.26 246.055 20.57 244.735 22.05C243.415 23.53 241.415 24.27 238.735 24.27Z" fill="white"/>
<path d="M256.138 24V2.75997H260.548V19.56H269.728V24H256.138Z" fill="white"/>
<path d="M280.357 19.38L283.087 21.36C281.917 23.58 279.487 24.3 277.657 24.3C274.537 24.3 271.387 22.47 271.387 18.78V13.65C271.387 9.89997 274.597 8.15997 277.717 8.15997C280.747 8.15997 283.717 9.71997 283.717 13.47V18.03H275.587V18.72C275.587 19.92 276.727 20.55 277.927 20.55C278.887 20.55 279.877 20.19 280.357 19.38ZM279.787 14.94V13.53C279.787 12.45 278.797 11.91 277.747 11.91C276.667 11.91 275.587 12.45 275.587 13.56V14.94H279.787Z" fill="white"/>
<path d="M285.918 18.78V13.71C285.918 10.05 289.038 8.15997 292.158 8.15997C295.248 8.15997 298.368 10.05 298.368 13.71V18.78C298.368 22.5 295.248 24.3 292.158 24.3C289.038 24.3 285.918 22.5 285.918 18.78ZM292.158 11.91C291.168 11.91 290.088 12.45 290.088 13.44V18.87C290.088 19.86 291.168 20.55 292.158 20.55C293.118 20.55 294.198 19.86 294.198 18.87V13.44C294.198 12.45 293.118 11.91 292.158 11.91Z" fill="white"/>
<path d="M301.132 24V9.50997C302.842 8.66997 304.822 8.15997 306.742 8.15997C310.222 8.15997 313.522 9.74997 313.522 13.83V24H309.382V13.98C309.382 12.54 308.212 11.91 307.012 11.91C306.382 11.91 305.812 12.06 305.302 12.33V24H301.132Z" fill="white"/>
<path d="M8.44166 59.3C6.86166 59.3 5.49166 58.94 4.33166 58.22C3.17166 57.5 2.27166 56.52 1.63166 55.28C1.01166 54.02 0.70166 52.6 0.70166 51.02C0.70166 49 1.05166 47.38 1.75166 46.16C2.47166 44.92 3.47166 44.02 4.75166 43.46C6.03166 42.88 7.52166 42.59 9.22166 42.59H17.7417V45.98H13.9917C14.5317 46.48 14.9617 47.01 15.2817 47.57C15.6217 48.13 15.8617 48.73 16.0017 49.37C16.1617 49.99 16.2417 50.68 16.2417 51.44C16.2417 52.32 16.0917 53.22 15.7917 54.14C15.4917 55.06 15.0217 55.91 14.3817 56.69C13.7617 57.47 12.9517 58.1 11.9517 58.58C10.9717 59.06 9.80166 59.3 8.44166 59.3ZM8.50166 55.7C9.28166 55.7 9.90166 55.5 10.3617 55.1C10.8417 54.68 11.1817 54.12 11.3817 53.42C11.6017 52.7 11.7117 51.91 11.7117 51.05C11.7117 50.23 11.6517 49.5 11.5317 48.86C11.4317 48.22 11.2617 47.66 11.0217 47.18C10.8017 46.7 10.5117 46.3 10.1517 45.98H9.34166C8.52166 45.98 7.80166 46.13 7.18166 46.43C6.56166 46.73 6.08166 47.25 5.74166 47.99C5.42166 48.71 5.26166 49.72 5.26166 51.02C5.26166 51.96 5.36166 52.78 5.56166 53.48C5.78166 54.18 6.12166 54.73 6.58166 55.13C7.06166 55.51 7.70166 55.7 8.50166 55.7Z" fill="white"/>
<path d="M31.6999 66.2V49.43C31.6999 48.25 31.4899 47.37 31.0699 46.79C30.6699 46.19 30.0299 45.89 29.1499 45.89C28.3099 45.89 27.6399 46.1 27.1399 46.52C26.6599 46.94 26.3199 47.55 26.1199 48.35C25.9199 49.15 25.8199 50.13 25.8199 51.29V59H21.3499V42.62H24.7699L25.3699 44.72H25.6099C25.9699 44.16 26.3899 43.71 26.8699 43.37C27.3699 43.01 27.9199 42.75 28.5199 42.59C29.1199 42.41 29.7599 42.32 30.4399 42.32C31.5799 42.32 32.5799 42.53 33.4399 42.95C34.2999 43.37 34.9699 44.02 35.4499 44.9C35.9299 45.78 36.1699 46.92 36.1699 48.32V66.2H31.6999ZM26.1799 40.82V40.43L27.5899 35.72H32.5999V36.02L29.1799 40.82H26.1799Z" fill="white"/>
<path d="M48.9037 59.03L48.5737 58.01C47.7037 59.6 45.1537 59.84 44.2837 57.95V64.61H40.0537V43.52H44.3137V52.94C44.3137 55.97 48.3037 55.7 48.3037 53V43.52H52.5637L52.6237 59.06L48.9037 59.03Z" fill="white"/>
<path d="M62.5054 59.3C60.1054 59.3 58.2954 58.86 57.0754 57.98C55.8554 57.1 55.2454 55.93 55.2454 54.47C55.2454 53.67 55.3954 53.01 55.6954 52.49C55.9954 51.95 56.4154 51.53 56.9554 51.23C57.4954 50.91 58.1354 50.68 58.8754 50.54V50.39C57.9154 50.15 57.1954 49.73 56.7154 49.13C56.2554 48.53 56.0254 47.79 56.0254 46.91C56.0254 45.99 56.2554 45.19 56.7154 44.51C57.1954 43.81 57.9154 43.27 58.8754 42.89C59.8354 42.51 61.0454 42.32 62.5054 42.32C63.5454 42.32 64.5954 42.43 65.6554 42.65C66.7154 42.85 67.6254 43.18 68.3854 43.64L67.1554 46.79C66.3354 46.35 65.5854 46.05 64.9054 45.89C64.2454 45.71 63.5554 45.62 62.8354 45.62C61.9354 45.62 61.2754 45.78 60.8554 46.1C60.4354 46.4 60.2254 46.84 60.2254 47.42C60.2254 48 60.4354 48.42 60.8554 48.68C61.2954 48.92 61.9454 49.04 62.8054 49.04H65.2354V52.25H62.8354C62.0954 52.25 61.5054 52.32 61.0654 52.46C60.6254 52.58 60.3054 52.78 60.1054 53.06C59.9054 53.32 59.8054 53.66 59.8054 54.08C59.8054 54.74 60.0754 55.22 60.6154 55.52C61.1754 55.82 61.9854 55.97 63.0454 55.97C63.9654 55.97 64.7854 55.87 65.5054 55.67C66.2454 55.45 67.0354 55.08 67.8754 54.56V58.07C67.1554 58.49 66.3854 58.8 65.5654 59C64.7454 59.2 63.7254 59.3 62.5054 59.3Z" fill="white"/>
<path d="M71.2026 66.2V50.78C71.2026 48.98 71.5026 47.45 72.1026 46.19C72.7026 44.93 73.5626 43.97 74.6826 43.31C75.8226 42.65 77.1726 42.32 78.7326 42.32C80.3126 42.32 81.6826 42.65 82.8426 43.31C84.0026 43.97 84.9026 44.94 85.5426 46.22C86.1826 47.5 86.5026 49.08 86.5026 50.96C86.5026 52.78 86.1626 54.31 85.4826 55.55C84.8026 56.79 83.9326 57.73 82.8726 58.37C81.8126 58.99 80.7026 59.3 79.5426 59.3C78.7826 59.3 78.0926 59.19 77.4726 58.97C76.8526 58.75 76.2726 58.48 75.7326 58.16H75.4626C75.5026 58.62 75.5526 59.23 75.6126 59.99C75.6726 60.75 75.7026 61.45 75.7026 62.09V66.2H71.2026ZM78.9126 55.7C79.5126 55.7 80.0426 55.54 80.5026 55.22C80.9626 54.88 81.3126 54.36 81.5526 53.66C81.8126 52.96 81.9426 52.06 81.9426 50.96C81.9426 49.14 81.6526 47.85 81.0726 47.09C80.5126 46.31 79.7026 45.92 78.6426 45.92C77.6426 45.92 76.9026 46.28 76.4226 47C75.9426 47.72 75.7026 48.91 75.7026 50.57V54.44C76.1226 54.86 76.6126 55.18 77.1726 55.4C77.7526 55.6 78.3326 55.7 78.9126 55.7Z" fill="white"/>
<path d="M95.3275 59.3C94.0475 59.3 92.9475 58.96 92.0275 58.28C91.1075 57.58 90.4075 56.6 89.9275 55.34C89.4475 54.06 89.2075 52.57 89.2075 50.87C89.2075 48.07 89.7775 45.95 90.9175 44.51C92.0575 43.05 93.5775 42.32 95.4775 42.32C96.2575 42.32 96.9375 42.43 97.5175 42.65C98.1175 42.85 98.6375 43.13 99.0775 43.49C99.5175 43.85 99.8975 44.26 100.218 44.72H100.338L100.728 42.62H104.508V53.81C104.508 54.49 104.628 54.95 104.868 55.19C105.128 55.43 105.418 55.55 105.738 55.55C105.878 55.55 106.038 55.53 106.218 55.49C106.398 55.45 106.528 55.42 106.608 55.4V58.91C106.508 58.97 106.338 59.03 106.098 59.09C105.858 59.15 105.598 59.2 105.318 59.24C105.058 59.28 104.818 59.3 104.598 59.3C103.598 59.3 102.788 59.12 102.168 58.76C101.548 58.4 101.068 57.76 100.728 56.84H100.428C100.128 57.28 99.7375 57.69 99.2575 58.07C98.7775 58.45 98.2075 58.75 97.5475 58.97C96.8875 59.19 96.1475 59.3 95.3275 59.3ZM96.9775 55.79C97.7975 55.79 98.4475 55.62 98.9275 55.28C99.4275 54.94 99.7875 54.42 100.008 53.72C100.228 53 100.338 52.1 100.338 51.02V50.84C100.338 49.24 100.088 48.03 99.5875 47.21C99.1075 46.37 98.2175 45.95 96.9175 45.95C95.8575 45.95 95.0675 46.37 94.5475 47.21C94.0275 48.05 93.7675 49.28 93.7675 50.9C93.7675 52.5 94.0275 53.72 94.5475 54.56C95.0675 55.38 95.8775 55.79 96.9775 55.79Z" fill="white"/>
<path d="M127.494 59H122.334L116.724 49.97L114.804 51.35V59H110.274V37.58H114.804V47.39C115.104 46.97 115.404 46.55 115.704 46.13C116.004 45.71 116.304 45.29 116.604 44.87L122.394 37.58H127.434L119.964 47.06L127.494 59Z" fill="white"/>
<path d="M134.966 59.3C133.686 59.3 132.586 58.96 131.666 58.28C130.746 57.58 130.046 56.6 129.566 55.34C129.086 54.06 128.846 52.57 128.846 50.87C128.846 48.07 129.416 45.95 130.556 44.51C131.696 43.05 133.216 42.32 135.116 42.32C135.896 42.32 136.576 42.43 137.156 42.65C137.756 42.85 138.276 43.13 138.716 43.49C139.156 43.85 139.536 44.26 139.856 44.72H139.976L140.366 42.62H144.146V53.81C144.146 54.49 144.266 54.95 144.506 55.19C144.766 55.43 145.056 55.55 145.376 55.55C145.516 55.55 145.676 55.53 145.856 55.49C146.036 55.45 146.166 55.42 146.246 55.4V58.91C146.146 58.97 145.976 59.03 145.736 59.09C145.496 59.15 145.236 59.2 144.956 59.24C144.696 59.28 144.456 59.3 144.236 59.3C143.236 59.3 142.426 59.12 141.806 58.76C141.186 58.4 140.706 57.76 140.366 56.84H140.066C139.766 57.28 139.376 57.69 138.896 58.07C138.416 58.45 137.846 58.75 137.186 58.97C136.526 59.19 135.786 59.3 134.966 59.3ZM136.616 55.79C137.436 55.79 138.086 55.62 138.566 55.28C139.066 54.94 139.426 54.42 139.646 53.72C139.866 53 139.976 52.1 139.976 51.02V50.84C139.976 49.24 139.726 48.03 139.226 47.21C138.746 46.37 137.856 45.95 136.556 45.95C135.496 45.95 134.706 46.37 134.186 47.21C133.666 48.05 133.406 49.28 133.406 50.9C133.406 52.5 133.666 53.72 134.186 54.56C134.706 55.38 135.516 55.79 136.616 55.79Z" fill="white"/>
<path d="M155.343 59.3C153.943 59.3 152.813 59.06 151.953 58.58C151.113 58.08 150.503 57.42 150.123 56.6C149.743 55.78 149.553 54.87 149.553 53.87V42.62H154.023V53.21C154.023 54.19 154.233 54.85 154.653 55.19C155.073 55.53 155.583 55.7 156.183 55.7C156.583 55.7 156.943 55.68 157.263 55.64C157.583 55.58 157.923 55.51 158.283 55.43V58.94C157.923 59.04 157.473 59.12 156.933 59.18C156.393 59.26 155.863 59.3 155.343 59.3Z" fill="white"/>
<path d="M179.665 59.3C178.865 59.3 178.205 59.16 177.685 58.88C177.185 58.6 176.785 58.21 176.485 57.71C176.185 57.21 175.925 56.63 175.705 55.97L174.415 51.98C174.295 51.58 174.155 51.18 173.995 50.78C173.855 50.36 173.715 49.94 173.575 49.52C173.435 49.08 173.315 48.65 173.215 48.23C173.135 47.79 173.075 47.36 173.035 46.94H172.945C172.885 47.82 172.765 48.63 172.585 49.37C172.425 50.09 172.205 50.93 171.925 51.89L169.915 59H165.025L170.935 42.74L170.605 41.78C170.285 40.84 169.825 40.25 169.225 40.01C168.645 39.77 167.965 39.65 167.185 39.65C166.845 39.65 166.535 39.67 166.255 39.71C165.975 39.75 165.735 39.79 165.535 39.83V36.29C165.715 36.25 165.925 36.21 166.165 36.17C166.425 36.13 166.705 36.1 167.005 36.08C167.305 36.06 167.625 36.05 167.965 36.05C169.105 36.05 170.085 36.18 170.905 36.44C171.725 36.7 172.425 37.16 173.005 37.82C173.605 38.48 174.135 39.42 174.595 40.64L179.065 52.58C179.385 53.4 179.645 54.03 179.845 54.47C180.065 54.89 180.275 55.18 180.475 55.34C180.695 55.48 180.945 55.55 181.225 55.55C181.445 55.55 181.625 55.54 181.765 55.52C181.905 55.48 182.065 55.44 182.245 55.4V58.85C182.085 58.93 181.845 59 181.525 59.06C181.225 59.14 180.905 59.2 180.565 59.24C180.225 59.28 179.925 59.3 179.665 59.3Z" fill="white"/>
<path d="M189.429 59.3C188.149 59.3 187.049 58.96 186.129 58.28C185.209 57.58 184.509 56.6 184.029 55.34C183.549 54.06 183.309 52.57 183.309 50.87C183.309 48.07 183.879 45.95 185.019 44.51C186.159 43.05 187.679 42.32 189.579 42.32C190.359 42.32 191.039 42.43 191.619 42.65C192.219 42.85 192.739 43.13 193.179 43.49C193.619 43.85 193.999 44.26 194.319 44.72H194.439L194.829 42.62H198.609V53.81C198.609 54.49 198.729 54.95 198.969 55.19C199.229 55.43 199.519 55.55 199.839 55.55C199.979 55.55 200.139 55.53 200.319 55.49C200.499 55.45 200.629 55.42 200.709 55.4V58.91C200.609 58.97 200.439 59.03 200.199 59.09C199.959 59.15 199.699 59.2 199.419 59.24C199.159 59.28 198.919 59.3 198.699 59.3C197.699 59.3 196.889 59.12 196.269 58.76C195.649 58.4 195.169 57.76 194.829 56.84H194.529C194.229 57.28 193.839 57.69 193.359 58.07C192.879 58.45 192.309 58.75 191.649 58.97C190.989 59.19 190.249 59.3 189.429 59.3ZM191.079 55.79C191.899 55.79 192.549 55.62 193.029 55.28C193.529 54.94 193.889 54.42 194.109 53.72C194.329 53 194.439 52.1 194.439 51.02V50.84C194.439 49.24 194.189 48.03 193.689 47.21C193.209 46.37 192.319 45.95 191.019 45.95C189.959 45.95 189.169 46.37 188.649 47.21C188.129 48.05 187.869 49.28 187.869 50.9C187.869 52.5 188.129 53.72 188.649 54.56C189.169 55.38 189.979 55.79 191.079 55.79ZM189.849 40.82V40.43L191.259 35.72H196.269V36.02L192.849 40.82H189.849Z" fill="white"/>
<path d="M204.016 66.2V43.16C204.016 41.54 204.306 40.21 204.886 39.17C205.486 38.11 206.326 37.33 207.406 36.83C208.506 36.31 209.796 36.05 211.276 36.05C212.716 36.05 213.946 36.27 214.966 36.71C215.986 37.13 216.766 37.77 217.306 38.63C217.866 39.47 218.146 40.53 218.146 41.81C218.146 42.77 217.976 43.6 217.636 44.3C217.316 45 216.856 45.56 216.256 45.98C215.676 46.4 214.976 46.69 214.156 46.85V46.94C215.196 47.08 216.096 47.37 216.856 47.81C217.636 48.25 218.236 48.87 218.656 49.67C219.096 50.45 219.316 51.45 219.316 52.67C219.316 54.07 218.996 55.27 218.356 56.27C217.736 57.25 216.896 58 215.836 58.52C214.796 59.04 213.636 59.3 212.356 59.3C211.716 59.3 211.186 59.26 210.766 59.18C210.346 59.12 209.956 59.02 209.596 58.88C209.256 58.74 208.886 58.57 208.486 58.37V66.2H204.016ZM211.516 55.73C212.516 55.73 213.296 55.43 213.856 54.83C214.416 54.21 214.696 53.36 214.696 52.28C214.696 51.46 214.526 50.8 214.186 50.3C213.866 49.78 213.456 49.41 212.956 49.19C212.456 48.95 211.936 48.83 211.396 48.83H210.046V45.47H211.126C211.666 45.47 212.126 45.34 212.506 45.08C212.886 44.8 213.176 44.43 213.376 43.97C213.576 43.49 213.676 42.95 213.676 42.35C213.676 41.41 213.436 40.71 212.956 40.25C212.476 39.77 211.906 39.53 211.246 39.53C210.686 39.53 210.196 39.65 209.776 39.89C209.356 40.13 209.036 40.52 208.816 41.06C208.596 41.58 208.486 42.29 208.486 43.19V54.71C208.986 55.03 209.476 55.28 209.956 55.46C210.436 55.64 210.956 55.73 211.516 55.73Z" fill="white"/>
<path d="M228.97 59.3C226.57 59.3 224.76 58.86 223.54 57.98C222.32 57.1 221.71 55.93 221.71 54.47C221.71 53.67 221.86 53.01 222.16 52.49C222.46 51.95 222.88 51.53 223.42 51.23C223.96 50.91 224.6 50.68 225.34 50.54V50.39C224.38 50.15 223.66 49.73 223.18 49.13C222.72 48.53 222.49 47.79 222.49 46.91C222.49 45.99 222.72 45.19 223.18 44.51C223.66 43.81 224.38 43.27 225.34 42.89C226.3 42.51 227.51 42.32 228.97 42.32C230.01 42.32 231.06 42.43 232.12 42.65C233.18 42.85 234.09 43.18 234.85 43.64L233.62 46.79C232.8 46.35 232.05 46.05 231.37 45.89C230.71 45.71 230.02 45.62 229.3 45.62C228.4 45.62 227.74 45.78 227.32 46.1C226.9 46.4 226.69 46.84 226.69 47.42C226.69 48 226.9 48.42 227.32 48.68C227.76 48.92 228.41 49.04 229.27 49.04H231.7V52.25H229.3C228.56 52.25 227.97 52.32 227.53 52.46C227.09 52.58 226.77 52.78 226.57 53.06C226.37 53.32 226.27 53.66 226.27 54.08C226.27 54.74 226.54 55.22 227.08 55.52C227.64 55.82 228.45 55.97 229.51 55.97C230.43 55.97 231.25 55.87 231.97 55.67C232.71 55.45 233.5 55.08 234.34 54.56V58.07C233.62 58.49 232.85 58.8 232.03 59C231.21 59.2 230.19 59.3 228.97 59.3Z" fill="white"/>
<path d="M245.977 59.3C244.957 59.3 244.037 59.14 243.217 58.82C242.417 58.5 241.777 57.95 241.297 57.17C240.817 56.37 240.577 55.27 240.577 53.87V45.98H236.467V42.62H250.867V45.98H245.047V53.87C245.047 54.29 245.127 54.64 245.287 54.92C245.447 55.2 245.677 55.41 245.977 55.55C246.277 55.67 246.617 55.73 246.997 55.73C247.497 55.73 247.977 55.68 248.437 55.58C248.897 55.48 249.357 55.36 249.817 55.22V58.55C249.377 58.75 248.817 58.92 248.137 59.06C247.477 59.22 246.757 59.3 245.977 59.3Z" fill="white"/>
<path d="M259.849 59.3C257.449 59.3 255.639 58.86 254.419 57.98C253.199 57.1 252.589 55.93 252.589 54.47C252.589 53.67 252.739 53.01 253.039 52.49C253.339 51.95 253.759 51.53 254.299 51.23C254.839 50.91 255.479 50.68 256.219 50.54V50.39C255.259 50.15 254.539 49.73 254.059 49.13C253.599 48.53 253.369 47.79 253.369 46.91C253.369 45.99 253.599 45.19 254.059 44.51C254.539 43.81 255.259 43.27 256.219 42.89C257.179 42.51 258.389 42.32 259.849 42.32C260.889 42.32 261.939 42.43 262.999 42.65C264.059 42.85 264.969 43.18 265.729 43.64L264.499 46.79C263.679 46.35 262.929 46.05 262.249 45.89C261.589 45.71 260.899 45.62 260.179 45.62C259.279 45.62 258.619 45.78 258.199 46.1C257.779 46.4 257.569 46.84 257.569 47.42C257.569 48 257.779 48.42 258.199 48.68C258.639 48.92 259.289 49.04 260.149 49.04H262.579V52.25H260.179C259.439 52.25 258.849 52.32 258.409 52.46C257.969 52.58 257.649 52.78 257.449 53.06C257.249 53.32 257.149 53.66 257.149 54.08C257.149 54.74 257.419 55.22 257.959 55.52C258.519 55.82 259.329 55.97 260.389 55.97C261.309 55.97 262.129 55.87 262.849 55.67C263.589 55.45 264.379 55.08 265.219 54.56V58.07C264.499 58.49 263.729 58.8 262.909 59C262.089 59.2 261.069 59.3 259.849 59.3Z" fill="white"/>
<path d="M280.738 59.3C278.338 59.3 276.528 58.86 275.308 57.98C274.088 57.1 273.478 55.93 273.478 54.47C273.478 53.67 273.628 53.01 273.928 52.49C274.228 51.95 274.648 51.53 275.188 51.23C275.728 50.91 276.368 50.68 277.108 50.54V50.39C276.148 50.15 275.428 49.73 274.948 49.13C274.488 48.53 274.258 47.79 274.258 46.91C274.258 45.99 274.488 45.19 274.948 44.51C275.428 43.81 276.148 43.27 277.108 42.89C278.068 42.51 279.278 42.32 280.738 42.32C281.778 42.32 282.828 42.43 283.888 42.65C284.948 42.85 285.858 43.18 286.618 43.64L285.388 46.79C284.568 46.35 283.818 46.05 283.138 45.89C282.478 45.71 281.788 45.62 281.068 45.62C280.168 45.62 279.508 45.78 279.088 46.1C278.668 46.4 278.458 46.84 278.458 47.42C278.458 48 278.668 48.42 279.088 48.68C279.528 48.92 280.178 49.04 281.038 49.04H283.468V52.25H281.068C280.328 52.25 279.738 52.32 279.298 52.46C278.858 52.58 278.538 52.78 278.338 53.06C278.138 53.32 278.038 53.66 278.038 54.08C278.038 54.74 278.308 55.22 278.848 55.52C279.408 55.82 280.218 55.97 281.278 55.97C282.198 55.97 283.018 55.87 283.738 55.67C284.478 55.45 285.268 55.08 286.108 54.56V58.07C285.388 58.49 284.618 58.8 283.798 59C282.978 59.2 281.958 59.3 280.738 59.3ZM279.508 40.82V40.43L280.918 35.72H285.928V36.02L282.508 40.82H279.508Z" fill="white"/>
<path d="M295.502 59.3C294.042 59.3 292.822 58.95 291.842 58.25C290.862 57.55 290.122 56.58 289.622 55.34C289.142 54.08 288.902 52.65 288.902 51.05C288.902 49.05 289.172 47.35 289.712 45.95C290.272 44.55 290.952 43.44 291.752 42.62H295.742C295.242 43.16 294.782 43.83 294.362 44.63C293.962 45.43 293.632 46.36 293.372 47.42C293.132 48.46 293.012 49.62 293.012 50.9C293.012 52.36 293.232 53.55 293.672 54.47C294.132 55.37 294.862 55.82 295.862 55.82C296.462 55.82 296.932 55.68 297.272 55.4C297.612 55.1 297.852 54.68 297.992 54.14C298.132 53.6 298.202 52.94 298.202 52.16V47.84H302.312V52.16C302.312 52.94 302.382 53.6 302.522 54.14C302.662 54.68 302.902 55.1 303.242 55.4C303.582 55.68 304.052 55.82 304.652 55.82C305.332 55.82 305.872 55.62 306.272 55.22C306.692 54.8 307.002 54.22 307.202 53.48C307.402 52.74 307.502 51.9 307.502 50.96C307.502 49.72 307.392 48.59 307.172 47.57C306.952 46.53 306.642 45.6 306.242 44.78C305.842 43.94 305.352 43.22 304.772 42.62H308.762C309.362 43.24 309.872 43.96 310.292 44.78C310.732 45.6 311.062 46.53 311.282 47.57C311.502 48.59 311.612 49.75 311.612 51.05C311.612 52.65 311.362 54.08 310.862 55.34C310.382 56.58 309.652 57.55 308.672 58.25C307.692 58.95 306.472 59.3 305.012 59.3C303.732 59.3 302.722 59.01 301.982 58.43C301.262 57.85 300.712 57.01 300.332 55.91H300.182C299.942 56.63 299.612 57.25 299.192 57.77C298.792 58.27 298.292 58.65 297.692 58.91C297.092 59.17 296.362 59.3 295.502 59.3Z" fill="white"/>
<path d="M321.938 65.06C322.358 64.28 322.688 63.58 322.928 62.96C323.188 62.36 323.318 61.8 323.318 61.28C323.318 60.82 323.238 60.47 323.078 60.23C322.918 60.01 322.648 59.82 322.268 59.66C321.888 59.52 321.358 59.36 320.678 59.18C319.658 58.9 318.768 58.54 318.008 58.1C317.248 57.64 316.618 57.08 316.118 56.42C315.618 55.76 315.238 55 314.978 54.14C314.738 53.26 314.618 52.27 314.618 51.17C314.618 49.63 314.818 48.31 315.218 47.21C315.618 46.09 316.178 45.17 316.898 44.45C317.638 43.73 318.508 43.2 319.508 42.86C320.508 42.5 321.608 42.32 322.808 42.32C323.708 42.32 324.548 42.41 325.328 42.59C326.128 42.77 326.928 43.05 327.728 43.43L326.438 46.88C325.698 46.58 325.038 46.35 324.458 46.19C323.898 46.01 323.308 45.92 322.688 45.92C321.868 45.92 321.198 46.12 320.678 46.52C320.158 46.92 319.778 47.48 319.538 48.2C319.298 48.92 319.178 49.77 319.178 50.75C319.178 51.43 319.228 52.03 319.328 52.55C319.448 53.07 319.638 53.53 319.898 53.93C320.178 54.33 320.568 54.67 321.068 54.95C321.568 55.23 322.218 55.46 323.018 55.64C324.238 55.92 325.178 56.25 325.838 56.63C326.518 56.99 326.988 57.45 327.248 58.01C327.528 58.55 327.668 59.22 327.668 60.02C327.668 60.94 327.518 61.83 327.218 62.69C326.938 63.57 326.588 64.36 326.168 65.06H321.938Z" fill="white"/>
<path d="M25.7794 77.62L19.3294 85.12L26.1694 94H21.0694L16.4794 87.76L14.3794 89.08V94H9.90943V77.62H14.3794V81.91C14.3594 82.51 14.3494 83.11 14.3494 83.71C14.3494 84.31 14.3294 84.9 14.2894 85.48H14.3494C14.6894 85.06 15.0294 84.65 15.3694 84.25C15.7094 83.83 16.0594 83.41 16.4194 82.99L21.0094 77.62H25.7794Z" fill="white"/>
<path d="M33.643 94.3C32.363 94.3 31.263 93.96 30.343 93.28C29.423 92.58 28.7229 91.6 28.2429 90.34C27.7629 89.06 27.5229 87.57 27.5229 85.87C27.5229 83.07 28.093 80.95 29.233 79.51C30.3729 78.05 31.8929 77.32 33.7929 77.32C34.5729 77.32 35.2529 77.43 35.8329 77.65C36.4329 77.85 36.953 78.13 37.393 78.49C37.833 78.85 38.213 79.26 38.533 79.72H38.653L39.043 77.62H42.823V88.81C42.823 89.49 42.943 89.95 43.183 90.19C43.443 90.43 43.7329 90.55 44.0529 90.55C44.1929 90.55 44.353 90.53 44.533 90.49C44.713 90.45 44.843 90.42 44.923 90.4V93.91C44.823 93.97 44.6529 94.03 44.4129 94.09C44.1729 94.15 43.9129 94.2 43.6329 94.24C43.3729 94.28 43.1329 94.3 42.9129 94.3C41.9129 94.3 41.1029 94.12 40.4829 93.76C39.8629 93.4 39.383 92.76 39.043 91.84H38.743C38.443 92.28 38.053 92.69 37.573 93.07C37.093 93.45 36.5229 93.75 35.8629 93.97C35.2029 94.19 34.463 94.3 33.643 94.3ZM35.2929 90.79C36.1129 90.79 36.763 90.62 37.243 90.28C37.743 89.94 38.103 89.42 38.323 88.72C38.543 88 38.653 87.1 38.653 86.02V85.84C38.653 84.24 38.403 83.03 37.903 82.21C37.423 81.37 36.5329 80.95 35.2329 80.95C34.1729 80.95 33.3829 81.37 32.8629 82.21C32.3429 83.05 32.0829 84.28 32.0829 85.9C32.0829 87.5 32.3429 88.72 32.8629 89.56C33.3829 90.38 34.1929 90.79 35.2929 90.79Z" fill="white"/>
<path d="M54.0197 94.3C52.6197 94.3 51.4897 94.06 50.6297 93.58C49.7897 93.08 49.1798 92.42 48.7998 91.6C48.4198 90.78 48.2297 89.87 48.2297 88.87V77.62H52.6997V88.21C52.6997 89.19 52.9098 89.85 53.3298 90.19C53.7498 90.53 54.2598 90.7 54.8597 90.7C55.2598 90.7 55.6198 90.68 55.9398 90.64C56.2598 90.58 56.5997 90.51 56.9597 90.43V93.94C56.5997 94.04 56.1497 94.12 55.6097 94.18C55.0697 94.26 54.5397 94.3 54.0197 94.3Z" fill="white"/>
<path d="M66.4922 80.02V79.51C66.4922 74.86 70.6022 72.46 74.8322 72.46C77.6222 72.46 80.7722 73.9 82.2122 77.02L78.6722 78.94C76.8722 75.46 70.8722 76.24 70.8722 79.51V80.02H76.5723L75.9722 83.02H70.8722V84.25H76.5723L76.0023 87.19H70.8722V87.25C70.8722 90.52 76.7822 91.21 78.5822 87.73L82.3923 89.86C80.5322 92.86 77.5922 94.3 74.7422 94.3C70.6322 94.3 66.4922 91.93 66.4922 87.25V87.19H64.4522L65.0522 84.25H66.4922V83.02H64.4522L65.0522 80.02H66.4922Z" fill="white"/>
<path d="M92.184 94H88.044V79.03L86.034 80.77L83.274 78.43L88.704 72.7H92.184V94Z" fill="white"/>
<path d="M94.928 91.57C94.928 90.13 96.038 88.99 97.478 88.99C98.918 88.99 100.058 90.13 100.058 91.57C100.058 93.04 98.918 94.18 97.478 94.18C96.038 94.18 94.928 93.04 94.928 91.57Z" fill="white"/>
<path d="M102.404 89.98L105.644 87.82C106.574 89.29 108.074 90.04 109.364 90.04C114.074 90.04 114.134 83.47 109.484 83.35C107.894 83.35 107.054 83.59 105.044 84.73L102.584 84.79V72.76H115.844V76.93H106.664V79.96C109.124 78.94 111.824 79.36 113.564 80.23C119.924 83.35 117.884 94.42 109.664 94.3C107.984 94.3 104.324 93.82 102.404 89.98Z" fill="white"/>
<path d="M127.108 94.3C123.508 94.3 119.428 92.32 119.428 87.88V78.91C119.428 74.44 123.508 72.46 127.108 72.46C130.738 72.46 134.788 74.44 134.788 78.91V87.88C134.788 92.32 130.738 94.3 127.108 94.3ZM123.658 78.91V87.88C123.898 90.97 130.318 90.97 130.558 87.88V78.91C130.318 75.76 123.898 75.76 123.658 78.91Z" fill="white"/>
<path d="M145.184 94.3C141.584 94.3 137.504 92.32 137.504 87.88V78.91C137.504 74.44 141.584 72.46 145.184 72.46C148.814 72.46 152.864 74.44 152.864 78.91V87.88C152.864 92.32 148.814 94.3 145.184 94.3ZM141.734 78.91V87.88C141.974 90.97 148.394 90.97 148.634 87.88V78.91C148.394 75.76 141.974 75.76 141.734 78.91Z" fill="white"/>
<path d="M169.062 94.3C167.482 94.3 166.112 93.94 164.952 93.22C163.792 92.5 162.892 91.52 162.252 90.28C161.632 89.02 161.322 87.6 161.322 86.02C161.322 84 161.672 82.38 162.372 81.16C163.092 79.92 164.092 79.02 165.372 78.46C166.652 77.88 168.142 77.59 169.842 77.59H178.362V80.98H174.612C175.152 81.48 175.582 82.01 175.902 82.57C176.242 83.13 176.482 83.73 176.622 84.37C176.782 84.99 176.862 85.68 176.862 86.44C176.862 87.32 176.712 88.22 176.412 89.14C176.112 90.06 175.642 90.91 175.002 91.69C174.382 92.47 173.572 93.1 172.572 93.58C171.592 94.06 170.422 94.3 169.062 94.3ZM169.122 90.7C169.902 90.7 170.522 90.5 170.982 90.1C171.462 89.68 171.802 89.12 172.002 88.42C172.222 87.7 172.332 86.91 172.332 86.05C172.332 85.23 172.272 84.5 172.152 83.86C172.052 83.22 171.882 82.66 171.642 82.18C171.422 81.7 171.132 81.3 170.772 80.98H169.962C169.142 80.98 168.422 81.13 167.802 81.43C167.182 81.73 166.702 82.25 166.362 82.99C166.042 83.71 165.882 84.72 165.882 86.02C165.882 86.96 165.982 87.78 166.182 88.48C166.402 89.18 166.742 89.73 167.202 90.13C167.682 90.51 168.322 90.7 169.122 90.7Z" fill="white"/>
<path d="M187.354 94.3C184.954 94.3 183.144 93.86 181.924 92.98C180.704 92.1 180.094 90.93 180.094 89.47C180.094 88.67 180.244 88.01 180.544 87.49C180.844 86.95 181.264 86.53 181.804 86.23C182.344 85.91 182.984 85.68 183.724 85.54V85.39C182.764 85.15 182.044 84.73 181.564 84.13C181.104 83.53 180.874 82.79 180.874 81.91C180.874 80.99 181.104 80.19 181.564 79.51C182.044 78.81 182.764 78.27 183.724 77.89C184.684 77.51 185.894 77.32 187.354 77.32C188.394 77.32 189.444 77.43 190.504 77.65C191.564 77.85 192.474 78.18 193.234 78.64L192.004 81.79C191.184 81.35 190.434 81.05 189.754 80.89C189.094 80.71 188.404 80.62 187.684 80.62C186.784 80.62 186.124 80.78 185.704 81.1C185.284 81.4 185.074 81.84 185.074 82.42C185.074 83 185.284 83.42 185.704 83.68C186.144 83.92 186.794 84.04 187.654 84.04H190.084V87.25H187.684C186.944 87.25 186.354 87.32 185.914 87.46C185.474 87.58 185.154 87.78 184.954 88.06C184.754 88.32 184.654 88.66 184.654 89.08C184.654 89.74 184.924 90.22 185.464 90.52C186.024 90.82 186.834 90.97 187.894 90.97C188.814 90.97 189.634 90.87 190.354 90.67C191.094 90.45 191.884 90.08 192.724 89.56V93.07C192.004 93.49 191.234 93.8 190.414 94C189.594 94.2 188.574 94.3 187.354 94.3Z" fill="white"/>
<path d="M210.403 94.03L210.073 93.01C209.203 94.6 206.653 94.84 205.783 92.95V99.61H201.553V78.52H205.813V87.94C205.813 90.97 209.803 90.7 209.803 88V78.52H214.063L214.123 94.06L210.403 94.03Z" fill="white"/>
<path d="M231.054 89.86L231.084 94.12C226.674 93.88 225.504 92.05 225.504 89.17V82.57H223.164V94H219.024V82.69C218.514 82.78 218.004 82.9 217.494 83.11L216.804 83.14L215.964 79.87C217.164 79.15 218.124 78.46 220.194 78.46H231.924L231.534 82.57H229.704V89.05C229.704 89.65 230.004 89.95 231.054 89.86Z" fill="white"/>
<path d="M249.995 85.78C249.995 87.14 249.805 88.35 249.424 89.41C249.064 90.47 248.535 91.37 247.835 92.11C247.155 92.83 246.325 93.38 245.345 93.76C244.365 94.12 243.255 94.3 242.014 94.3C240.874 94.3 239.814 94.12 238.835 93.76C237.874 93.38 237.045 92.83 236.345 92.11C235.645 91.37 235.095 90.47 234.695 89.41C234.315 88.35 234.125 87.14 234.125 85.78C234.125 83.96 234.445 82.43 235.085 81.19C235.725 79.93 236.645 78.97 237.845 78.31C239.045 77.65 240.464 77.32 242.104 77.32C243.644 77.32 245.005 77.65 246.185 78.31C247.365 78.97 248.295 79.93 248.975 81.19C249.655 82.43 249.995 83.96 249.995 85.78ZM238.685 85.78C238.685 86.86 238.794 87.77 239.014 88.51C239.255 89.23 239.625 89.78 240.125 90.16C240.625 90.52 241.274 90.7 242.074 90.7C242.874 90.7 243.515 90.52 243.995 90.16C244.495 89.78 244.854 89.23 245.074 88.51C245.314 87.77 245.435 86.86 245.435 85.78C245.435 84.7 245.314 83.8 245.074 83.08C244.854 82.36 244.495 81.82 243.995 81.46C243.495 81.1 242.844 80.92 242.044 80.92C240.865 80.92 240.005 81.33 239.465 82.15C238.945 82.95 238.685 84.16 238.685 85.78ZM240.845 75.82V75.43L242.255 70.72H247.264V71.02L243.845 75.82H240.845Z" fill="white"/>
<path d="M256.613 94L250.763 77.62H255.353L258.233 86.71C258.333 87.01 258.443 87.37 258.563 87.79C258.703 88.21 258.833 88.62 258.953 89.02C259.073 89.42 259.173 89.76 259.253 90.04H259.373C260.033 89.04 260.573 87.94 260.993 86.74C261.433 85.54 261.753 84.2 261.953 82.72C262.153 81.22 262.253 79.52 262.253 77.62H266.753C266.753 79.78 266.573 81.79 266.213 83.65C265.853 85.49 265.223 87.26 264.323 88.96C263.443 90.64 262.213 92.32 260.633 94H256.613Z" fill="white"/>
<path d="M284.594 85.78C284.594 87.14 284.404 88.35 284.024 89.41C283.664 90.47 283.134 91.37 282.434 92.11C281.754 92.83 280.924 93.38 279.944 93.76C278.964 94.12 277.854 94.3 276.614 94.3C275.474 94.3 274.414 94.12 273.434 93.76C272.474 93.38 271.644 92.83 270.944 92.11C270.244 91.37 269.694 90.47 269.294 89.41C268.914 88.35 268.724 87.14 268.724 85.78C268.724 83.96 269.044 82.43 269.684 81.19C270.324 79.93 271.244 78.97 272.444 78.31C273.644 77.65 275.064 77.32 276.704 77.32C278.244 77.32 279.604 77.65 280.784 78.31C281.964 78.97 282.894 79.93 283.574 81.19C284.254 82.43 284.594 83.96 284.594 85.78ZM273.284 85.78C273.284 86.86 273.394 87.77 273.614 88.51C273.854 89.23 274.224 89.78 274.724 90.16C275.224 90.52 275.874 90.7 276.674 90.7C277.474 90.7 278.114 90.52 278.594 90.16C279.094 89.78 279.454 89.23 279.674 88.51C279.914 87.77 280.034 86.86 280.034 85.78C280.034 84.7 279.914 83.8 279.674 83.08C279.454 82.36 279.094 81.82 278.594 81.46C278.094 81.1 277.444 80.92 276.644 80.92C275.464 80.92 274.604 81.33 274.064 82.15C273.544 82.95 273.284 84.16 273.284 85.78Z" fill="white"/>
<path d="M295.278 94.27C293.878 94.27 292.718 94.09 291.798 93.73C290.898 93.37 290.178 92.86 289.638 92.2C289.118 91.52 288.748 90.73 288.528 89.83C288.308 88.91 288.198 87.91 288.198 86.83V77.62H292.668V86.98C292.668 87.92 292.758 88.67 292.938 89.23C293.138 89.77 293.438 90.15 293.838 90.37C294.258 90.59 294.788 90.7 295.428 90.7C296.208 90.7 296.848 90.52 297.348 90.16C297.848 89.78 298.208 89.17 298.428 88.33C298.668 87.49 298.788 86.38 298.788 85C298.788 83.7 298.688 82.48 298.488 81.34C298.308 80.18 298.058 78.94 297.738 77.62H302.238C302.458 78.48 302.638 79.31 302.778 80.11C302.938 80.89 303.058 81.69 303.138 82.51C303.218 83.31 303.258 84.18 303.258 85.12C303.258 88.26 302.598 90.57 301.278 92.05C299.958 93.53 297.958 94.27 295.278 94.27Z" fill="white"/>
<path d="M313.72 100.06C314.14 99.28 314.47 98.58 314.71 97.96C314.97 97.36 315.1 96.8 315.1 96.28C315.1 95.82 315.02 95.47 314.86 95.23C314.7 95.01 314.43 94.82 314.05 94.66C313.67 94.52 313.14 94.36 312.46 94.18C311.44 93.9 310.55 93.54 309.79 93.1C309.03 92.64 308.4 92.08 307.9 91.42C307.4 90.76 307.02 90 306.76 89.14C306.52 88.26 306.4 87.27 306.4 86.17C306.4 84.63 306.6 83.31 307 82.21C307.4 81.09 307.96 80.17 308.68 79.45C309.42 78.73 310.29 78.2 311.29 77.86C312.29 77.5 313.39 77.32 314.59 77.32C315.49 77.32 316.33 77.41 317.11 77.59C317.91 77.77 318.71 78.05 319.51 78.43L318.22 81.88C317.48 81.58 316.82 81.35 316.24 81.19C315.68 81.01 315.09 80.92 314.47 80.92C313.65 80.92 312.98 81.12 312.46 81.52C311.94 81.92 311.56 82.48 311.32 83.2C311.08 83.92 310.96 84.77 310.96 85.75C310.96 86.43 311.01 87.03 311.11 87.55C311.23 88.07 311.42 88.53 311.68 88.93C311.96 89.33 312.35 89.67 312.85 89.95C313.35 90.23 314 90.46 314.8 90.64C316.02 90.92 316.96 91.25 317.62 91.63C318.3 91.99 318.77 92.45 319.03 93.01C319.31 93.55 319.45 94.22 319.45 95.02C319.45 95.94 319.3 96.83 319 97.69C318.72 98.57 318.37 99.36 317.95 100.06H313.72Z" fill="white"/>
<path d="M51.6339 112.62L45.1839 120.12L52.0239 129H46.9239L42.3339 122.76L40.2339 124.08V129H35.7639V112.62H40.2339V116.91C40.2139 117.51 40.2039 118.11 40.2039 118.71C40.2039 119.31 40.1839 119.9 40.1439 120.48H40.2039C40.5439 120.06 40.8839 119.65 41.2239 119.25C41.5639 118.83 41.9139 118.41 42.2739 117.99L46.8639 112.62H51.6339Z" fill="white"/>
<path d="M59.4974 129.3C58.2174 129.3 57.1174 128.96 56.1974 128.28C55.2774 127.58 54.5774 126.6 54.0974 125.34C53.6174 124.06 53.3774 122.57 53.3774 120.87C53.3774 118.07 53.9474 115.95 55.0874 114.51C56.2274 113.05 57.7474 112.32 59.6474 112.32C60.4274 112.32 61.1074 112.43 61.6874 112.65C62.2874 112.85 62.8074 113.13 63.2474 113.49C63.6874 113.85 64.0674 114.26 64.3874 114.72H64.5074L64.8974 112.62H68.6774V123.81C68.6774 124.49 68.7974 124.95 69.0374 125.19C69.2974 125.43 69.5874 125.55 69.9074 125.55C70.0474 125.55 70.2074 125.53 70.3874 125.49C70.5674 125.45 70.6974 125.42 70.7774 125.4V128.91C70.6774 128.97 70.5074 129.03 70.2674 129.09C70.0274 129.15 69.7674 129.2 69.4874 129.24C69.2274 129.28 68.9874 129.3 68.7674 129.3C67.7674 129.3 66.9574 129.12 66.3374 128.76C65.7174 128.4 65.2374 127.76 64.8974 126.84H64.5974C64.2974 127.28 63.9074 127.69 63.4274 128.07C62.9474 128.45 62.3774 128.75 61.7174 128.97C61.0574 129.19 60.3174 129.3 59.4974 129.3ZM61.1474 125.79C61.9674 125.79 62.6174 125.62 63.0974 125.28C63.5974 124.94 63.9574 124.42 64.1774 123.72C64.3974 123 64.5074 122.1 64.5074 121.02V120.84C64.5074 119.24 64.2574 118.03 63.7574 117.21C63.2774 116.37 62.3874 115.95 61.0874 115.95C60.0274 115.95 59.2374 116.37 58.7174 117.21C58.1974 118.05 57.9374 119.28 57.9374 120.9C57.9374 122.5 58.1974 123.72 58.7174 124.56C59.2374 125.38 60.0474 125.79 61.1474 125.79Z" fill="white"/>
<path d="M86.3842 129.3C85.5842 129.3 84.9242 129.16 84.4042 128.88C83.9042 128.6 83.5042 128.21 83.2042 127.71C82.9042 127.21 82.6442 126.63 82.4242 125.97L81.1342 121.98C81.0142 121.58 80.8742 121.18 80.7142 120.78C80.5742 120.36 80.4342 119.94 80.2942 119.52C80.1542 119.08 80.0342 118.65 79.9342 118.23C79.8542 117.79 79.7942 117.36 79.7542 116.94H79.6642C79.6042 117.82 79.4842 118.63 79.3042 119.37C79.1442 120.09 78.9242 120.93 78.6442 121.89L76.6342 129H71.7442L77.6542 112.74L77.3242 111.78C77.0042 110.84 76.5442 110.25 75.9442 110.01C75.3642 109.77 74.6842 109.65 73.9042 109.65C73.5642 109.65 73.2542 109.67 72.9742 109.71C72.6942 109.75 72.4542 109.79 72.2542 109.83V106.29C72.4342 106.25 72.6442 106.21 72.8842 106.17C73.1442 106.13 73.4242 106.1 73.7242 106.08C74.0242 106.06 74.3442 106.05 74.6842 106.05C75.8242 106.05 76.8042 106.18 77.6242 106.44C78.4442 106.7 79.1442 107.16 79.7242 107.82C80.3242 108.48 80.8542 109.42 81.3142 110.64L85.7842 122.58C86.1042 123.4 86.3642 124.03 86.5642 124.47C86.7842 124.89 86.9942 125.18 87.1942 125.34C87.4142 125.48 87.6642 125.55 87.9442 125.55C88.1642 125.55 88.3442 125.54 88.4842 125.52C88.6242 125.48 88.7842 125.44 88.9642 125.4V128.85C88.8042 128.93 88.5642 129 88.2442 129.06C87.9442 129.14 87.6242 129.2 87.2842 129.24C86.9442 129.28 86.6442 129.3 86.3842 129.3Z" fill="white"/>
<path d="M96.9278 129.3C95.4678 129.3 94.2478 128.95 93.2678 128.25C92.2878 127.55 91.5478 126.58 91.0478 125.34C90.5678 124.08 90.3278 122.65 90.3278 121.05C90.3278 119.05 90.5978 117.35 91.1378 115.95C91.6978 114.55 92.3778 113.44 93.1778 112.62H97.1678C96.6678 113.16 96.2078 113.83 95.7878 114.63C95.3878 115.43 95.0578 116.36 94.7978 117.42C94.5578 118.46 94.4378 119.62 94.4378 120.9C94.4378 122.36 94.6578 123.55 95.0978 124.47C95.5578 125.37 96.2878 125.82 97.2878 125.82C97.8878 125.82 98.3578 125.68 98.6978 125.4C99.0378 125.1 99.2778 124.68 99.4178 124.14C99.5578 123.6 99.6278 122.94 99.6278 122.16V117.84H103.738V122.16C103.738 122.94 103.808 123.6 103.948 124.14C104.088 124.68 104.328 125.1 104.668 125.4C105.008 125.68 105.478 125.82 106.078 125.82C106.758 125.82 107.298 125.62 107.698 125.22C108.118 124.8 108.428 124.22 108.628 123.48C108.828 122.74 108.928 121.9 108.928 120.96C108.928 119.72 108.818 118.59 108.598 117.57C108.378 116.53 108.068 115.6 107.668 114.78C107.268 113.94 106.778 113.22 106.198 112.62H110.188C110.788 113.24 111.298 113.96 111.718 114.78C112.158 115.6 112.488 116.53 112.708 117.57C112.928 118.59 113.038 119.75 113.038 121.05C113.038 122.65 112.788 124.08 112.288 125.34C111.808 126.58 111.078 127.55 110.098 128.25C109.118 128.95 107.898 129.3 106.438 129.3C105.158 129.3 104.148 129.01 103.408 128.43C102.688 127.85 102.138 127.01 101.758 125.91H101.608C101.368 126.63 101.038 127.25 100.618 127.77C100.218 128.27 99.7178 128.65 99.1178 128.91C98.5178 129.17 97.7878 129.3 96.9278 129.3Z" fill="white"/>
<path d="M123.783 129.3C122.203 129.3 120.833 128.94 119.673 128.22C118.513 127.5 117.613 126.52 116.973 125.28C116.353 124.02 116.043 122.6 116.043 121.02C116.043 119 116.393 117.38 117.093 116.16C117.813 114.92 118.813 114.02 120.093 113.46C121.373 112.88 122.863 112.59 124.563 112.59H133.083V115.98H129.333C129.873 116.48 130.303 117.01 130.623 117.57C130.963 118.13 131.203 118.73 131.343 119.37C131.503 119.99 131.583 120.68 131.583 121.44C131.583 122.32 131.433 123.22 131.133 124.14C130.833 125.06 130.363 125.91 129.723 126.69C129.103 127.47 128.293 128.1 127.293 128.58C126.313 129.06 125.143 129.3 123.783 129.3ZM123.843 125.7C124.623 125.7 125.243 125.5 125.703 125.1C126.183 124.68 126.523 124.12 126.723 123.42C126.943 122.7 127.053 121.91 127.053 121.05C127.053 120.23 126.993 119.5 126.873 118.86C126.773 118.22 126.603 117.66 126.363 117.18C126.143 116.7 125.853 116.3 125.493 115.98H124.683C123.863 115.98 123.143 116.13 122.523 116.43C121.903 116.73 121.423 117.25 121.083 117.99C120.763 118.71 120.603 119.72 120.603 121.02C120.603 121.96 120.703 122.78 120.903 123.48C121.123 124.18 121.463 124.73 121.923 125.13C122.403 125.51 123.043 125.7 123.843 125.7Z" fill="white"/>
<path d="M150.986 120.78C150.986 122.14 150.796 123.35 150.416 124.41C150.056 125.47 149.526 126.37 148.826 127.11C148.146 127.83 147.316 128.38 146.336 128.76C145.356 129.12 144.246 129.3 143.006 129.3C141.866 129.3 140.806 129.12 139.826 128.76C138.866 128.38 138.036 127.83 137.336 127.11C136.636 126.37 136.086 125.47 135.686 124.41C135.306 123.35 135.116 122.14 135.116 120.78C135.116 118.96 135.436 117.43 136.076 116.19C136.716 114.93 137.636 113.97 138.836 113.31C140.036 112.65 141.456 112.32 143.096 112.32C144.636 112.32 145.996 112.65 147.176 113.31C148.356 113.97 149.286 114.93 149.966 116.19C150.646 117.43 150.986 118.96 150.986 120.78ZM139.676 120.78C139.676 121.86 139.786 122.77 140.006 123.51C140.246 124.23 140.616 124.78 141.116 125.16C141.616 125.52 142.266 125.7 143.066 125.7C143.866 125.7 144.506 125.52 144.986 125.16C145.486 124.78 145.846 124.23 146.066 123.51C146.306 122.77 146.426 121.86 146.426 120.78C146.426 119.7 146.306 118.8 146.066 118.08C145.846 117.36 145.486 116.82 144.986 116.46C144.486 116.1 143.836 115.92 143.036 115.92C141.856 115.92 140.996 116.33 140.456 117.15C139.936 117.95 139.676 119.16 139.676 120.78Z" fill="white"/>
<path d="M154.23 136.2V120.78C154.23 118.98 154.53 117.45 155.13 116.19C155.73 114.93 156.59 113.97 157.71 113.31C158.85 112.65 160.2 112.32 161.76 112.32C163.34 112.32 164.71 112.65 165.87 113.31C167.03 113.97 167.93 114.94 168.57 116.22C169.21 117.5 169.53 119.08 169.53 120.96C169.53 122.78 169.19 124.31 168.51 125.55C167.83 126.79 166.96 127.73 165.9 128.37C164.84 128.99 163.73 129.3 162.57 129.3C161.81 129.3 161.12 129.19 160.5 128.97C159.88 128.75 159.3 128.48 158.76 128.16H158.49C158.53 128.62 158.58 129.23 158.64 129.99C158.7 130.75 158.73 131.45 158.73 132.09V136.2H154.23ZM161.94 125.7C162.54 125.7 163.07 125.54 163.53 125.22C163.99 124.88 164.34 124.36 164.58 123.66C164.84 122.96 164.97 122.06 164.97 120.96C164.97 119.14 164.68 117.85 164.1 117.09C163.54 116.31 162.73 115.92 161.67 115.92C160.67 115.92 159.93 116.28 159.45 117C158.97 117.72 158.73 118.91 158.73 120.57V124.44C159.15 124.86 159.64 125.18 160.2 125.4C160.78 125.6 161.36 125.7 161.94 125.7Z" fill="white"/>
<path d="M179.015 129.3C177.615 129.3 176.485 129.06 175.625 128.58C174.785 128.08 174.175 127.42 173.795 126.6C173.415 125.78 173.225 124.87 173.225 123.87V112.62H177.695V123.21C177.695 124.19 177.905 124.85 178.325 125.19C178.745 125.53 179.255 125.7 179.855 125.7C180.255 125.7 180.615 125.68 180.935 125.64C181.255 125.58 181.595 125.51 181.955 125.43V128.94C181.595 129.04 181.145 129.12 180.605 129.18C180.065 129.26 179.535 129.3 179.015 129.3ZM174.275 110.82V110.43L175.685 105.72H180.695V106.02L177.275 110.82H174.275Z" fill="white"/>
<path d="M191.43 129.3C189.85 129.3 188.48 128.94 187.32 128.22C186.16 127.5 185.26 126.52 184.62 125.28C184 124.02 183.69 122.6 183.69 121.02C183.69 119 184.04 117.38 184.74 116.16C185.46 114.92 186.46 114.02 187.74 113.46C189.02 112.88 190.51 112.59 192.21 112.59H200.73V115.98H196.98C197.52 116.48 197.95 117.01 198.27 117.57C198.61 118.13 198.85 118.73 198.99 119.37C199.15 119.99 199.23 120.68 199.23 121.44C199.23 122.32 199.08 123.22 198.78 124.14C198.48 125.06 198.01 125.91 197.37 126.69C196.75 127.47 195.94 128.1 194.94 128.58C193.96 129.06 192.79 129.3 191.43 129.3ZM191.49 125.7C192.27 125.7 192.89 125.5 193.35 125.1C193.83 124.68 194.17 124.12 194.37 123.42C194.59 122.7 194.7 121.91 194.7 121.05C194.7 120.23 194.64 119.5 194.52 118.86C194.42 118.22 194.25 117.66 194.01 117.18C193.79 116.7 193.5 116.3 193.14 115.98H192.33C191.51 115.98 190.79 116.13 190.17 116.43C189.55 116.73 189.07 117.25 188.73 117.99C188.41 118.71 188.25 119.72 188.25 121.02C188.25 121.96 188.35 122.78 188.55 123.48C188.77 124.18 189.11 124.73 189.57 125.13C190.05 125.51 190.69 125.7 191.49 125.7Z" fill="white"/>
<path d="M212.468 129.03L212.138 128.01C211.268 129.6 208.718 129.84 207.848 127.95V134.61H203.618V113.52H207.878V122.94C207.878 125.97 211.868 125.7 211.868 123V113.52H216.128L216.188 129.06L212.468 129.03Z" fill="white"/>
<path d="M225.23 129.3C223.95 129.3 222.85 128.96 221.93 128.28C221.01 127.58 220.31 126.6 219.83 125.34C219.35 124.06 219.11 122.57 219.11 120.87C219.11 118.07 219.68 115.95 220.82 114.51C221.96 113.05 223.48 112.32 225.38 112.32C226.16 112.32 226.84 112.43 227.42 112.65C228.02 112.85 228.54 113.13 228.98 113.49C229.42 113.85 229.8 114.26 230.12 114.72H230.24L230.63 112.62H234.41V123.81C234.41 124.49 234.53 124.95 234.77 125.19C235.03 125.43 235.32 125.55 235.64 125.55C235.78 125.55 235.94 125.53 236.12 125.49C236.3 125.45 236.43 125.42 236.51 125.4V128.91C236.41 128.97 236.24 129.03 236 129.09C235.76 129.15 235.5 129.2 235.22 129.24C234.96 129.28 234.72 129.3 234.5 129.3C233.5 129.3 232.69 129.12 232.07 128.76C231.45 128.4 230.97 127.76 230.63 126.84H230.33C230.03 127.28 229.64 127.69 229.16 128.07C228.68 128.45 228.11 128.75 227.45 128.97C226.79 129.19 226.05 129.3 225.23 129.3ZM226.88 125.79C227.7 125.79 228.35 125.62 228.83 125.28C229.33 124.94 229.69 124.42 229.91 123.72C230.13 123 230.24 122.1 230.24 121.02V120.84C230.24 119.24 229.99 118.03 229.49 117.21C229.01 116.37 228.12 115.95 226.82 115.95C225.76 115.95 224.97 116.37 224.45 117.21C223.93 118.05 223.67 119.28 223.67 120.9C223.67 122.5 223.93 123.72 224.45 124.56C224.97 125.38 225.78 125.79 226.88 125.79Z" fill="white"/>
<path d="M247.384 129.3C246.364 129.3 245.444 129.14 244.624 128.82C243.824 128.5 243.184 127.95 242.704 127.17C242.224 126.37 241.984 125.27 241.984 123.87V115.98H237.874V112.62H252.274V115.98H246.454V123.87C246.454 124.29 246.534 124.64 246.694 124.92C246.854 125.2 247.084 125.41 247.384 125.55C247.684 125.67 248.024 125.73 248.404 125.73C248.904 125.73 249.384 125.68 249.844 125.58C250.304 125.48 250.764 125.36 251.224 125.22V128.55C250.784 128.75 250.224 128.92 249.544 129.06C248.884 129.22 248.164 129.3 247.384 129.3Z" fill="white"/>
<path d="M270.165 120.78C270.165 122.14 269.975 123.35 269.595 124.41C269.235 125.47 268.705 126.37 268.005 127.11C267.325 127.83 266.495 128.38 265.515 128.76C264.535 129.12 263.425 129.3 262.185 129.3C261.045 129.3 259.985 129.12 259.005 128.76C258.045 128.38 257.215 127.83 256.515 127.11C255.815 126.37 255.265 125.47 254.865 124.41C254.485 123.35 254.295 122.14 254.295 120.78C254.295 118.96 254.615 117.43 255.255 116.19C255.895 114.93 256.815 113.97 258.015 113.31C259.215 112.65 260.635 112.32 262.275 112.32C263.815 112.32 265.175 112.65 266.355 113.31C267.535 113.97 268.465 114.93 269.145 116.19C269.825 117.43 270.165 118.96 270.165 120.78ZM258.855 120.78C258.855 121.86 258.965 122.77 259.185 123.51C259.425 124.23 259.795 124.78 260.295 125.16C260.795 125.52 261.445 125.7 262.245 125.7C263.045 125.7 263.685 125.52 264.165 125.16C264.665 124.78 265.025 124.23 265.245 123.51C265.485 122.77 265.605 121.86 265.605 120.78C265.605 119.7 265.485 118.8 265.245 118.08C265.025 117.36 264.665 116.82 264.165 116.46C263.665 116.1 263.015 115.92 262.215 115.92C261.035 115.92 260.175 116.33 259.635 117.15C259.115 117.95 258.855 119.16 258.855 120.78Z" fill="white"/>
<path d="M280.19 135.06C280.61 134.28 280.94 133.58 281.18 132.96C281.44 132.36 281.57 131.8 281.57 131.28C281.57 130.82 281.49 130.47 281.33 130.23C281.17 130.01 280.9 129.82 280.52 129.66C280.14 129.52 279.61 129.36 278.93 129.18C277.91 128.9 277.02 128.54 276.26 128.1C275.5 127.64 274.87 127.08 274.37 126.42C273.87 125.76 273.49 125 273.23 124.14C272.99 123.26 272.87 122.27 272.87 121.17C272.87 119.63 273.07 118.31 273.47 117.21C273.87 116.09 274.43 115.17 275.15 114.45C275.89 113.73 276.76 113.2 277.76 112.86C278.76 112.5 279.86 112.32 281.06 112.32C281.96 112.32 282.8 112.41 283.58 112.59C284.38 112.77 285.18 113.05 285.98 113.43L284.69 116.88C283.95 116.58 283.29 116.35 282.71 116.19C282.15 116.01 281.56 115.92 280.94 115.92C280.12 115.92 279.45 116.12 278.93 116.52C278.41 116.92 278.03 117.48 277.79 118.2C277.55 118.92 277.43 119.77 277.43 120.75C277.43 121.43 277.48 122.03 277.58 122.55C277.7 123.07 277.89 123.53 278.15 123.93C278.43 124.33 278.82 124.67 279.32 124.95C279.82 125.23 280.47 125.46 281.27 125.64C282.49 125.92 283.43 126.25 284.09 126.63C284.77 126.99 285.24 127.45 285.5 128.01C285.78 128.55 285.92 129.22 285.92 130.02C285.92 130.94 285.77 131.83 285.47 132.69C285.19 133.57 284.84 134.36 284.42 135.06H280.19Z" fill="white"/>
<path d="M288.61 123.24V107.67H292.84V123.24H288.61ZM288.16 126.72C288.16 125.28 289.27 124.11 290.71 124.11C292.18 124.11 293.32 125.28 293.32 126.72C293.32 128.16 292.18 129.3 290.71 129.3C289.27 129.3 288.16 128.16 288.16 126.72Z" fill="white"/>
</svg>
